<svg width="19" height="16" viewBox="0 0 19 16" fill="none" xmlns="http://www.w3.org/2000/svg">
<path d="M9.01282 4.00125V1.12376C9.01246 0.901541 8.9462 0.684401 8.8224 0.499704C8.6986 0.315007 8.5228 0.171018 8.31714 0.0858826C8.11149 0.00074698 7.88519 -0.0217257 7.66676 0.0212972C7.44833 0.0643201 7.24754 0.170913 7.08971 0.327643L0 7.30828L7.08971 14.2878C7.19409 14.3926 7.3182 14.4757 7.4549 14.5325C7.59159 14.5892 7.73817 14.6184 7.88622 14.6184C8.03426 14.6184 8.18085 14.5892 8.31754 14.5325C8.45423 14.4757 8.57834 14.3926 8.68273 14.2878C8.89402 14.077 9.01276 13.791 9.01282 13.4928V10.694C12.111 10.7705 15.4964 11.3305 18.0256 15.1795V14.055C18.0256 8.84541 14.0825 4.56123 9.01282 4.00125Z" fill="#8D8D8D"/>
</svg>
