<svg width="18" height="17" viewBox="0 0 18 17" fill="none" xmlns="http://www.w3.org/2000/svg">
<path fill-rule="evenodd" clip-rule="evenodd" d="M2.67299 0C1.70035 0 0.851562 0.752857 0.851562 1.75464V8.64086C0.851562 9.64143 1.70035 10.3955 2.67299 10.3955H16.0301C17.004 10.3955 17.8516 9.64264 17.8516 8.64086V1.75586C17.8516 0.752857 17.004 0 16.0301 0H2.67299ZM9.35156 3.00779C9.06397 3.00779 8.7792 3.06443 8.5135 3.17449C8.2478 3.28454 8.00638 3.44585 7.80302 3.64921C7.59967 3.85257 7.43836 4.09399 7.3283 4.35969C7.21824 4.62539 7.1616 4.91016 7.1616 5.19775C7.1616 5.48534 7.21824 5.77011 7.3283 6.03581C7.43836 6.30151 7.59967 6.54293 7.80302 6.74629C8.00638 6.94965 8.2478 7.11096 8.5135 7.22101C8.7792 7.33107 9.06397 7.38771 9.35156 7.38771C9.93238 7.38771 10.4894 7.15699 10.9001 6.74629C11.3108 6.33559 11.5415 5.77856 11.5415 5.19775C11.5415 4.61694 11.3108 4.05991 10.9001 3.64921C10.4894 3.23851 9.93238 3.00779 9.35156 3.00779ZM5.13678 5.46671C5.13678 5.70889 5.04057 5.94116 4.86932 6.1124C4.69808 6.28365 4.46581 6.37986 4.22363 6.37986C3.98145 6.37986 3.74919 6.28365 3.57794 6.1124C3.4067 5.94116 3.31049 5.70889 3.31049 5.46671C3.31049 5.22453 3.4067 4.99227 3.57794 4.82102C3.74919 4.64978 3.98145 4.55357 4.22363 4.55357C4.46581 4.55357 4.69808 4.64978 4.86932 4.82102C5.04057 4.99227 5.13678 5.22453 5.13678 5.46671ZM14.4795 6.37986C14.7217 6.37986 14.9539 6.28365 15.1252 6.1124C15.2964 5.94116 15.3926 5.70889 15.3926 5.46671C15.3926 5.22453 15.2964 4.99227 15.1252 4.82102C14.9539 4.64978 14.7217 4.55357 14.4795 4.55357C14.2373 4.55357 14.005 4.64978 13.8338 4.82102C13.6626 4.99227 13.5663 5.22453 13.5663 5.46671C13.5663 5.70889 13.6626 5.94116 13.8338 6.1124C14.005 6.28365 14.2373 6.37986 14.4795 6.37986ZM2.17028 12.8229C2.17028 12.5813 2.26623 12.3497 2.43702 12.1789C2.60781 12.0081 2.83945 11.9121 3.08099 11.9121H15.6233C15.8649 11.9121 16.0965 12.0081 16.2673 12.1789C16.4381 12.3497 16.5341 12.5813 16.5341 12.8229C16.5341 13.0644 16.4381 13.296 16.2673 13.4668C16.0965 13.6376 15.8649 13.7336 15.6233 13.7336H3.07978C2.83824 13.7336 2.6066 13.6376 2.4358 13.4668C2.26501 13.296 2.17028 13.0644 2.17028 12.8229ZM4.22121 15.1373C3.97967 15.1373 3.74803 15.2332 3.57723 15.404C3.40644 15.5748 3.31049 15.8065 3.31049 16.048C3.31049 16.2895 3.40644 16.5212 3.57723 16.692C3.74803 16.8628 3.97967 16.9587 4.22121 16.9587H14.4819C14.7235 16.9587 14.9551 16.8628 15.1259 16.692C15.2967 16.5212 15.3926 16.2895 15.3926 16.048C15.3926 15.8065 15.2967 15.5748 15.1259 15.404C14.9551 15.2332 14.7235 15.1373 14.4819 15.1373H4.22121Z" fill="#2A85FF"/>
</svg>
