<svg width="20" height="20" viewBox="0 0 20 20" fill="none" xmlns="http://www.w3.org/2000/svg">
<g clip-path="url(#clip0_4564_57491)">
<path d="M19.9241 16.9314L19.0324 16.2397C19.0519 16.1044 19.063 15.968 19.0657 15.8314C19.0676 15.6945 19.0564 15.5578 19.0324 15.423L19.9157 14.7314C19.9532 14.6993 19.9786 14.6553 19.9876 14.6068C19.9967 14.5583 19.989 14.5082 19.9657 14.4647L19.1324 13.0239C19.1077 12.9799 19.0679 12.9464 19.0204 12.9296C18.9729 12.9127 18.9209 12.9136 18.8741 12.9322L17.8407 13.3489C17.6259 13.1793 17.3876 13.0418 17.1332 12.9405L16.9749 11.8405C16.9688 11.7919 16.945 11.7473 16.9082 11.715C16.8713 11.6828 16.8239 11.6651 16.7749 11.6655H15.1099C15.0604 11.6665 15.0128 11.6844 14.9748 11.7163C14.9369 11.7481 14.9111 11.792 14.9016 11.8405L14.7432 12.9405C14.4913 13.0471 14.2534 13.1842 14.0349 13.3489L13.0016 12.9322C12.9547 12.9156 12.9034 12.9156 12.8565 12.9323C12.8097 12.949 12.7699 12.9813 12.7441 13.0239L11.9107 14.4655C11.8859 14.5086 11.8772 14.5592 11.8864 14.6081C11.8956 14.657 11.9219 14.7011 11.9607 14.7322L12.8441 15.4239C12.8106 15.6951 12.8106 15.9693 12.8441 16.2405L11.9607 16.9322C11.9235 16.9643 11.8982 17.008 11.8892 17.0564C11.8801 17.1047 11.8877 17.1546 11.9107 17.198L12.7441 18.6397C12.7688 18.6836 12.8085 18.7171 12.856 18.734C12.9035 18.7509 12.9555 18.7499 13.0024 18.7314L14.0357 18.3147C14.2506 18.4843 14.4889 18.6218 14.7432 18.723L14.9016 19.823C14.9096 19.8723 14.935 19.9171 14.9732 19.9492C15.0115 19.9814 15.06 19.9987 15.1099 19.998H16.7757C16.8252 19.9971 16.8729 19.9792 16.9108 19.9473C16.9487 19.9155 16.9746 19.8716 16.9841 19.823L17.1424 18.723C17.3924 18.6182 17.6275 18.481 17.8416 18.3147L18.8832 18.7314C18.9303 18.7482 18.9817 18.7483 19.0287 18.7316C19.0758 18.7149 19.1157 18.6824 19.1416 18.6397L19.9741 17.198C19.9973 17.1545 20.0051 17.1044 19.996 17.0559C19.9869 17.0074 19.9615 16.9635 19.9241 16.9314ZM15.9424 17.0814C15.6952 17.0814 15.4535 17.0081 15.2479 16.8707C15.0424 16.7334 14.8822 16.5381 14.7876 16.3097C14.6929 16.0813 14.6682 15.83 14.7164 15.5875C14.7647 15.345 14.8837 15.1223 15.0585 14.9475C15.2333 14.7727 15.4561 14.6536 15.6985 14.6054C15.941 14.5572 16.1924 14.5819 16.4208 14.6765C16.6492 14.7711 16.8444 14.9313 16.9817 15.1369C17.1191 15.3425 17.1924 15.5841 17.1924 15.8314C17.1927 15.9956 17.1606 16.1583 17.0979 16.3101C17.0352 16.4619 16.9432 16.5998 16.827 16.716C16.7109 16.8321 16.573 16.9242 16.4212 16.9869C16.2693 17.0496 16.1067 17.0817 15.9424 17.0814Z" fill="white"/>
<path d="M7.49479 2.5C7.49686 2.75343 7.55787 3.0029 7.673 3.22867C7.78813 3.45445 7.95422 3.65033 8.15812 3.80083L3.74479 6.65583H2.49229C2.05107 6.65583 1.62791 6.83105 1.31584 7.14296C1.00377 7.45487 0.828346 7.87795 0.828125 8.31917V15.0025C0.828125 15.4439 1.00346 15.8672 1.31555 16.1792C1.62764 16.4913 2.05093 16.6667 2.49229 16.6667H9.22812C9.186 16.3908 9.16372 16.1123 9.16146 15.8333C9.158 14.6702 9.4444 13.5246 9.99479 12.5V10C9.99479 9.77899 10.0826 9.56702 10.2389 9.41074C10.3951 9.25446 10.6071 9.16667 10.8281 9.16667C11.0491 9.16667 11.2611 9.25446 11.4174 9.41074C11.5737 9.56702 11.6615 9.77899 11.6615 10V11.0433C12.1692 10.6858 12.7323 10.4141 13.3281 10.2392V10.0017C13.3279 9.89209 13.3493 9.78355 13.3911 9.68225C13.4329 9.58095 13.4942 9.48889 13.5716 9.41133C13.649 9.33377 13.741 9.27224 13.8422 9.23026C13.9434 9.18828 14.0519 9.16667 14.1615 9.16667C14.2715 9.1644 14.3809 9.1844 14.483 9.22548C14.5852 9.26655 14.6779 9.32785 14.7558 9.40569C14.8336 9.48353 14.8949 9.5763 14.936 9.67843C14.9771 9.78056 14.9971 9.88994 14.9948 10C15.8592 10.0105 16.7115 10.2051 17.4948 10.5708V8.31917C17.4946 7.87795 17.3191 7.45487 17.0071 7.14296C16.695 6.83105 16.2718 6.65583 15.8306 6.65583H14.5881L10.1698 3.7975C10.3723 3.64681 10.5372 3.45123 10.6514 3.2261C10.7656 3.00098 10.8261 2.75244 10.8281 2.5C10.8266 2.21058 10.7501 1.9265 10.6061 1.67545C10.4621 1.4244 10.2555 1.21494 10.0065 1.0675V0H9.16146V1.67167C9.3246 1.67298 9.4837 1.72254 9.61873 1.8141C9.75375 1.90566 9.85867 2.03512 9.92027 2.18619C9.98187 2.33726 9.99739 2.50317 9.96488 2.66304C9.93236 2.82292 9.85328 2.96959 9.73757 3.0846C9.62186 3.19962 9.47471 3.27782 9.31465 3.30937C9.15459 3.34092 8.98877 3.3244 8.83807 3.26189C8.68738 3.19939 8.55855 3.09369 8.4678 2.95812C8.37706 2.82254 8.32846 2.66314 8.32812 2.5M4.99479 13.3333C4.99479 13.5543 4.90699 13.7663 4.75071 13.9226C4.59443 14.0789 4.38247 14.1667 4.16146 14.1667C3.94044 14.1667 3.72848 14.0789 3.5722 13.9226C3.41592 13.7663 3.32812 13.5543 3.32812 13.3333V10.0017C3.32812 9.78065 3.41592 9.56869 3.5722 9.41241C3.72848 9.25613 3.94044 9.16833 4.16146 9.16833C4.38247 9.16833 4.59443 9.25613 4.75071 9.41241C4.90699 9.56869 4.99479 9.78065 4.99479 10.0017V13.3333ZM8.32812 13.3333C8.32812 13.5543 8.24033 13.7663 8.08405 13.9226C7.92777 14.0789 7.71581 14.1667 7.49479 14.1667C7.27378 14.1667 7.06182 14.0789 6.90554 13.9226C6.74926 13.7663 6.66146 13.5543 6.66146 13.3333V10C6.66146 9.77899 6.74926 9.56702 6.90554 9.41074C7.06182 9.25446 7.27378 9.16667 7.49479 9.16667C7.71581 9.16667 7.92777 9.25446 8.08405 9.41074C8.24033 9.56702 8.32812 9.77899 8.32812 10V13.3333ZM9.17562 4.14583L13.0548 6.65583H5.27979L9.15729 4.14667" fill="white"/>
</g>
<defs>
<clipPath id="clip0_4564_57491">
<rect width="20" height="20" fill="white" transform="translate(-0.00390625)"/>
</clipPath>
</defs>
</svg>
