<svg width="16" height="15" viewBox="0 0 16 15" fill="none" xmlns="http://www.w3.org/2000/svg">
<path fill-rule="evenodd" clip-rule="evenodd" d="M13.388 1.83073H2.05469C1.86683 1.83073 1.68666 1.90536 1.55382 2.0382C1.42098 2.17103 1.34635 2.3512 1.34635 2.53906V12.4557C1.34635 12.6436 1.42098 12.8238 1.55382 12.9566C1.68666 13.0894 1.86683 13.1641 2.05469 13.1641H13.388C13.5759 13.1641 13.7561 13.0894 13.8889 12.9566C14.0217 12.8238 14.0964 12.6436 14.0964 12.4557V2.53906C14.0964 2.3512 14.0217 2.17103 13.8889 2.0382C13.7561 1.90536 13.5759 1.83073 13.388 1.83073ZM2.05469 0.414062C1.4911 0.414063 0.9506 0.637946 0.552086 1.03646C0.153571 1.43498 -0.0703125 1.97548 -0.0703125 2.53906V12.4557C-0.0703125 13.0193 0.153571 13.5598 0.552086 13.9583C0.9506 14.3568 1.4911 14.5807 2.05469 14.5807H13.388C13.9516 14.5807 14.4921 14.3568 14.8906 13.9583C15.2891 13.5598 15.513 13.0193 15.513 12.4557V2.53906C15.513 1.97548 15.2891 1.43498 14.8906 1.03646C14.4921 0.637946 13.9516 0.414063 13.388 0.414062H2.05469ZM3.47135 3.95573H4.88802V5.3724H3.47135V3.95573ZM7.01302 3.95573C6.82516 3.95573 6.64499 4.03036 6.51215 4.1632C6.37932 4.29603 6.30469 4.4762 6.30469 4.66406C6.30469 4.85192 6.37932 5.03209 6.51215 5.16493C6.64499 5.29777 6.82516 5.3724 7.01302 5.3724H11.263C11.4509 5.3724 11.6311 5.29777 11.7639 5.16493C11.8967 5.03209 11.9714 4.85192 11.9714 4.66406C11.9714 4.4762 11.8967 4.29603 11.7639 4.1632C11.6311 4.03036 11.4509 3.95573 11.263 3.95573H7.01302ZM4.88802 6.78906H3.47135V8.20573H4.88802V6.78906ZM6.30469 7.4974C6.30469 7.30953 6.37932 7.12937 6.51215 6.99653C6.64499 6.86369 6.82516 6.78906 7.01302 6.78906H11.263C11.4509 6.78906 11.6311 6.86369 11.7639 6.99653C11.8967 7.12937 11.9714 7.30953 11.9714 7.4974C11.9714 7.68526 11.8967 7.86543 11.7639 7.99826C11.6311 8.1311 11.4509 8.20573 11.263 8.20573H7.01302C6.82516 8.20573 6.64499 8.1311 6.51215 7.99826C6.37932 7.86543 6.30469 7.68526 6.30469 7.4974ZM4.88802 9.6224H3.47135V11.0391H4.88802V9.6224ZM6.30469 10.3307C6.30469 10.1429 6.37932 9.9627 6.51215 9.82986C6.64499 9.69702 6.82516 9.6224 7.01302 9.6224H11.263C11.4509 9.6224 11.6311 9.69702 11.7639 9.82986C11.8967 9.9627 11.9714 10.1429 11.9714 10.3307C11.9714 10.5186 11.8967 10.6988 11.7639 10.8316C11.6311 10.9644 11.4509 11.0391 11.263 11.0391H7.01302C6.82516 11.0391 6.64499 10.9644 6.51215 10.8316C6.37932 10.6988 6.30469 10.5186 6.30469 10.3307Z" fill="white"/>
</svg>
