<svg width="27" height="27" viewBox="0 0 27 27" fill="none" xmlns="http://www.w3.org/2000/svg">
<g clip-path="url(#clip0_3853_68025)">
<path d="M15.3743 0.970379C15.6207 1.08482 15.8688 1.19538 16.1169 1.30601C16.3102 1.39217 16.5032 1.47876 16.6962 1.56552C17.0809 1.73839 17.4657 1.91091 17.8506 2.08339C17.978 2.14052 18.1055 2.19764 18.2329 2.25477C18.296 2.28305 18.3591 2.31133 18.4241 2.34047C20.1445 3.11171 21.865 3.88295 23.5854 4.65419C23.6486 4.68251 23.7118 4.71083 23.7769 4.74001C23.9034 4.7967 24.0298 4.8534 24.1563 4.91011C24.4542 5.04371 24.7522 5.17721 25.0503 5.3104C25.1907 5.37315 25.3311 5.43595 25.4715 5.49875C25.5382 5.5286 25.605 5.55843 25.6718 5.58823C25.7646 5.62962 25.8573 5.6711 25.9501 5.71258C26.0027 5.73611 26.0554 5.75964 26.1097 5.78388C26.2675 5.85654 26.4228 5.93442 26.5781 6.0121C26.5781 10.85 26.5781 15.6878 26.5781 20.6723C26.0212 20.6723 25.4644 20.6723 24.8906 20.6723C24.8906 21.2117 24.8906 21.7512 24.8906 22.307C25.0298 22.3418 25.1691 22.3766 25.3125 22.4125C25.5099 22.5245 25.6521 22.6745 25.7344 22.8871C25.7584 23.1205 25.7539 23.3546 25.7542 23.5891C25.7554 23.653 25.7567 23.7169 25.7581 23.7827C25.7592 24.1432 25.7589 24.3977 25.5234 24.6801C25.2561 24.8612 25.0896 24.9169 24.76 24.9106C24.7225 24.9102 24.685 24.9098 24.6463 24.9094C24.5655 24.9085 24.4847 24.9071 24.4039 24.9053C24.2757 24.9027 24.1476 24.9017 24.0193 24.9012C23.6551 24.8996 23.291 24.8962 22.9268 24.889C22.7034 24.8847 22.4801 24.8833 22.2567 24.8836C22.1719 24.8832 22.0871 24.8817 22.0024 24.8791C21.7413 24.8712 21.5045 24.872 21.252 24.9437C21.1126 25.0786 21.0364 25.2002 20.9537 25.3749C20.6884 25.9323 20.0717 26.2432 19.5307 26.4817C18.7764 26.7355 17.9008 26.6205 17.1939 26.2961C16.5922 25.9895 16.2174 25.5664 15.873 24.9965C15.873 24.9617 15.873 24.9269 15.873 24.891C15.0406 24.8843 14.2082 24.881 13.3757 24.8816C12.9891 24.8818 12.6026 24.8809 12.216 24.8774C11.879 24.8745 11.5421 24.8735 11.205 24.875C11.0266 24.8757 10.8483 24.8754 10.67 24.8726C10.4705 24.8701 10.2714 24.8711 10.0719 24.873C10.0131 24.8715 9.95428 24.8699 9.89367 24.8682C9.72385 24.8721 9.59777 24.8816 9.43945 24.9437C9.31631 25.0796 9.23394 25.2127 9.14975 25.3753C8.84465 25.9458 8.18594 26.3243 7.58716 26.5258C6.71974 26.7221 5.85169 26.5824 5.08825 26.136C4.63367 25.842 4.33779 25.4553 4.06055 24.9965C4.06055 24.9617 4.06055 24.9269 4.06055 24.891C4.03081 24.8921 4.00107 24.8932 3.97042 24.8944C3.83348 24.8988 3.69656 24.9015 3.55957 24.9042C3.5128 24.906 3.46603 24.9077 3.41785 24.9095C3.03141 24.9152 2.76624 24.8307 2.4676 24.5839C2.43966 24.5514 2.41172 24.519 2.38293 24.4856C2.34001 24.438 2.34001 24.438 2.29621 24.3894C2.03543 23.9689 2.03518 23.5395 2.04119 23.0566C2.04141 22.9882 2.04164 22.9199 2.04187 22.8494C2.04247 22.6692 2.04402 22.4889 2.04578 22.3087C2.04741 22.1242 2.04813 21.9396 2.04892 21.7551C2.05052 21.3941 2.05362 21.0332 2.05664 20.6723C1.49977 20.6723 0.942891 20.6723 0.369141 20.6723C0.369141 15.8344 0.369141 10.9966 0.369141 6.0121C1.39893 5.54134 2.42774 5.07161 3.46296 4.61351C3.7746 4.47522 4.08566 4.33564 4.39673 4.19606C4.42849 4.18181 4.46024 4.16756 4.49296 4.15289C4.65368 4.08078 4.8144 4.00866 4.97511 3.93653C5.29423 3.79332 5.61343 3.65028 5.93262 3.50722C6.06006 3.45009 6.1875 3.39296 6.31494 3.33583C7.07959 2.99306 7.84424 2.65028 8.60889 2.30751C8.70354 2.26508 8.70354 2.26508 8.8001 2.22179C8.92737 2.16474 9.05464 2.1077 9.18191 2.05066C9.5032 1.90666 9.82445 1.76256 10.1456 1.61825C10.5253 1.44768 10.9052 1.27763 11.2852 1.1078C11.3788 1.06588 11.3788 1.06588 11.4743 1.02311C11.655 0.942307 11.8359 0.861854 12.0168 0.781508C12.0707 0.757368 12.1246 0.733227 12.1801 0.708355C13.3679 0.182962 14.2353 0.438252 15.3743 0.970379ZM12.1768 1.70381C12.0123 1.78109 11.8474 1.85734 11.6825 1.93365C11.5989 1.97236 11.5153 2.01112 11.4317 2.04994C11.0703 2.21766 10.707 2.38056 10.3425 2.54152C10.2277 2.59232 10.1129 2.64313 9.99811 2.69395C9.94135 2.71907 9.88458 2.74419 9.8261 2.77007C9.51446 2.90835 9.2034 3.04793 8.89233 3.18751C8.86058 3.20176 8.82882 3.21601 8.7961 3.23069C8.63538 3.30279 8.47466 3.37491 8.31396 3.44704C7.99483 3.59026 7.67563 3.73329 7.35645 3.87636C7.229 3.93349 7.10156 3.99061 6.97412 4.04774C6.20947 4.39052 5.44482 4.73329 4.68018 5.07606C4.61703 5.10437 4.55388 5.13268 4.48882 5.16185C4.36203 5.21868 4.23523 5.27551 4.10843 5.33233C3.8143 5.46414 3.52021 5.59602 3.22625 5.7282C3.08995 5.78948 2.95364 5.85071 2.81732 5.91193C2.72311 5.95427 2.62893 5.99668 2.53475 6.03908C2.11353 6.22825 1.6902 6.41022 1.26562 6.59218C1.26562 10.9428 1.26562 15.2933 1.26562 19.7758C1.52666 19.7758 1.7877 19.7758 2.05664 19.7758C2.05695 19.7068 2.05726 19.6378 2.05758 19.5668C2.0606 18.9158 2.06444 18.2648 2.06907 17.6139C2.07143 17.2792 2.0735 16.9446 2.07491 16.61C2.07628 16.2868 2.07842 15.9637 2.08107 15.6406C2.08194 15.5175 2.08255 15.3944 2.08288 15.2713C2.08339 15.0985 2.08487 14.9257 2.08657 14.7529C2.0865 14.7024 2.08642 14.6518 2.08634 14.5997C2.092 14.1918 2.15717 13.8202 2.42578 13.5004C2.42578 13.4656 2.42578 13.4308 2.42578 13.3949C2.45515 13.3808 2.48451 13.3666 2.51477 13.3521C2.64654 13.2844 2.77338 13.2074 2.90039 13.1312C2.90039 11.1474 2.90039 9.16351 2.90039 7.11952C9.87873 7.11952 16.8571 7.11952 24.0469 7.11952C24.0469 9.99091 24.0469 12.8623 24.0469 15.8207C24.3079 16.0817 24.5689 16.3428 24.8379 16.6117C24.9135 16.9155 24.9401 17.0833 24.9267 17.3811C24.9267 17.4502 24.9268 17.5193 24.9268 17.5905C24.9269 17.7714 24.9223 17.9519 24.9167 18.1328C24.9117 18.3184 24.9113 18.504 24.9105 18.6897C24.9083 19.0519 24.9007 19.4137 24.8906 19.7758C25.1517 19.7758 25.4127 19.7758 25.6816 19.7758C25.6816 15.4252 25.6816 11.0746 25.6816 6.59218C24.3465 5.97921 24.3465 5.97921 23.006 5.37847C22.8137 5.29368 22.6216 5.20844 22.4294 5.12324C22.3896 5.1056 22.3498 5.08796 22.3088 5.06978C21.825 4.85507 21.3424 4.63764 20.8597 4.42018C20.8151 4.40009 20.7705 4.38 20.7246 4.35929C20.5488 4.28008 20.3729 4.20085 20.1971 4.12162C19.6253 3.86401 19.053 3.6077 18.4806 3.35136C18.2293 3.23875 17.9779 3.12606 17.7265 3.01337C17.5989 2.95615 17.4712 2.89893 17.3436 2.84173C16.9882 2.68247 16.6329 2.52296 16.2778 2.36318C15.9922 2.23477 15.7063 2.10713 15.4204 1.97957C15.2455 1.90118 15.0712 1.8218 14.8968 1.74226C14.7905 1.69444 14.6841 1.64665 14.5778 1.59889C14.5311 1.57726 14.4844 1.55563 14.4364 1.53335C13.5631 1.14512 12.9999 1.31701 12.1768 1.70381ZM3.79688 8.01601C3.79688 9.66923 3.79688 11.3225 3.79688 13.0258C4.33635 13.0258 4.87582 13.0258 5.43164 13.0258C5.43164 11.6336 5.43164 10.2414 5.43164 8.80702C10.7394 8.80702 16.0471 8.80702 21.5156 8.80702C21.5156 10.7561 21.5156 12.7051 21.5156 14.7133C22.2465 14.7394 22.2465 14.7394 22.9922 14.766C23.0444 14.8008 23.0966 14.8356 23.1504 14.8715C23.1504 12.6092 23.1504 10.3469 23.1504 8.01601C16.7637 8.01601 10.3771 8.01601 3.79688 8.01601ZM6.32812 9.70351C6.32812 10.7999 6.32812 11.8962 6.32812 13.0258C7.70291 13.0258 9.07769 13.0258 10.4941 13.0258C10.4941 11.9294 10.4941 10.8331 10.4941 9.70351C10.2331 9.70351 9.97207 9.70351 9.70312 9.70351C9.70312 10.2604 9.70312 10.8173 9.70312 11.391C8.85041 11.391 7.9977 11.391 7.11914 11.391C7.11914 10.8341 7.11914 10.2773 7.11914 9.70351C6.85811 9.70351 6.59707 9.70351 6.32812 9.70351ZM8.01562 9.70351C8.01562 9.96454 8.01562 10.2256 8.01562 10.4945C8.27666 10.4945 8.53769 10.4945 8.80664 10.4945C8.80664 10.2335 8.80664 9.97245 8.80664 9.70351C8.54561 9.70351 8.28457 9.70351 8.01562 9.70351ZM11.3906 9.70351C11.3906 10.7999 11.3906 11.8962 11.3906 13.0258C12.7654 13.0258 14.1402 13.0258 15.5566 13.0258C15.5566 11.9294 15.5566 10.8331 15.5566 9.70351C15.2956 9.70351 15.0346 9.70351 14.7656 9.70351C14.7656 10.2604 14.7656 10.8173 14.7656 11.391C13.9129 11.391 13.0602 11.391 12.1816 11.391C12.1816 10.8341 12.1816 10.2773 12.1816 9.70351C11.9206 9.70351 11.6596 9.70351 11.3906 9.70351ZM13.0781 9.70351C13.0781 9.96454 13.0781 10.2256 13.0781 10.4945C13.3392 10.4945 13.6002 10.4945 13.8691 10.4945C13.8691 10.2335 13.8691 9.97245 13.8691 9.70351C13.6081 9.70351 13.3471 9.70351 13.0781 9.70351ZM16.4531 9.70351C16.4531 10.7999 16.4531 11.8962 16.4531 13.0258C16.7142 13.0606 16.9752 13.0954 17.2441 13.1312C17.5751 13.2537 17.7883 13.414 17.9824 13.7113C18.0879 13.975 18.0879 13.975 18.1406 14.7133C18.9585 14.7133 19.7764 14.7133 20.6191 14.7133C20.6191 13.06 20.6191 11.4068 20.6191 9.70351C20.3581 9.70351 20.0971 9.70351 19.8281 9.70351C19.8281 10.2604 19.8281 10.8173 19.8281 11.391C18.9754 11.391 18.1227 11.391 17.2441 11.391C17.2441 10.8341 17.2441 10.2773 17.2441 9.70351C16.9831 9.70351 16.7221 9.70351 16.4531 9.70351ZM18.1406 9.70351C18.1406 9.96454 18.1406 10.2256 18.1406 10.4945C18.4017 10.4945 18.6627 10.4945 18.9316 10.4945C18.9316 10.2335 18.9316 9.97245 18.9316 9.70351C18.6706 9.70351 18.4096 9.70351 18.1406 9.70351ZM3.05859 14.0805C2.93416 14.2528 2.9401 14.4128 2.94044 14.6211C2.9403 14.6888 2.94015 14.7565 2.94 14.8263C2.94038 14.9013 2.94076 14.9762 2.94115 15.0512C2.94118 15.1302 2.94116 15.2092 2.9411 15.2882C2.94107 15.5026 2.94169 15.717 2.94243 15.9314C2.94309 16.1555 2.94315 16.3796 2.94328 16.6036C2.94361 17.028 2.94447 17.4523 2.94553 17.8766C2.94671 18.3597 2.94729 18.8428 2.94782 19.3259C2.94892 20.3196 2.95078 21.3133 2.95312 22.307C3.13189 22.3162 3.3106 22.3218 3.48953 22.3268C3.54003 22.3294 3.59053 22.3321 3.64256 22.3348C3.91493 22.3464 3.91493 22.3464 4.15582 22.2388C4.27208 22.1073 4.36631 21.96 4.43978 21.8007C4.73196 21.2517 5.36212 20.9578 5.93159 20.7699C6.71169 20.5811 7.56088 20.6615 8.25973 21.0696C8.65531 21.3347 8.9978 21.6174 9.20189 22.0527C9.29559 22.2106 9.34424 22.2909 9.5174 22.3568C9.68366 22.377 9.84305 22.3801 10.0105 22.3778C10.0731 22.3789 10.1356 22.3801 10.2001 22.3813C10.3711 22.3839 10.5419 22.3841 10.7129 22.3831C10.8561 22.3825 10.9991 22.3835 11.1422 22.3845C11.4801 22.3869 11.8179 22.3865 12.1558 22.3845C12.5035 22.3824 12.8509 22.3847 13.1986 22.3892C13.4978 22.393 13.797 22.394 14.0962 22.393C14.2746 22.3924 14.4529 22.3927 14.6313 22.3956C15.3296 22.4389 15.3296 22.4389 15.9767 22.2395C16.1575 22.06 16.2442 21.8526 16.3477 21.6215C16.5139 21.4402 16.6964 21.2535 16.9253 21.1555C17.0543 21.0946 17.1441 21.0383 17.2441 20.9359C17.3079 20.7217 17.2996 20.5119 17.2954 20.2897C17.296 20.1914 17.296 20.1914 17.2966 20.0911C17.2972 19.9117 17.296 19.7325 17.2939 19.5531C17.292 19.3653 17.2924 19.1775 17.2925 18.9897C17.2923 18.6743 17.2904 18.359 17.2876 18.0437C17.2842 17.6792 17.2831 17.3148 17.2833 16.9503C17.2834 16.5621 17.282 16.1739 17.28 15.7856C17.2796 15.6738 17.2794 15.562 17.2793 15.4502C17.2791 15.2419 17.277 15.0336 17.2748 14.8253C17.2749 14.7324 17.2749 14.7324 17.2751 14.6376C17.2737 14.5526 17.2737 14.5526 17.2723 14.4658C17.272 14.4165 17.2716 14.3673 17.2713 14.3166C17.236 14.1468 17.165 14.084 17.0332 13.975C16.9105 13.9136 16.8397 13.9155 16.703 13.9153C16.6556 13.9151 16.6081 13.9149 16.5593 13.9147C16.5068 13.9148 16.4544 13.9148 16.4003 13.9148C16.3448 13.9147 16.2894 13.9145 16.2322 13.9144C16.0452 13.9139 15.8581 13.9138 15.671 13.9138C15.5374 13.9135 15.4037 13.9132 15.2701 13.913C14.9062 13.9123 14.5423 13.9119 14.1784 13.9117C13.9512 13.9116 13.7241 13.9113 13.4969 13.9111C12.8683 13.9104 12.2396 13.9099 11.6109 13.9097C11.5707 13.9097 11.5304 13.9097 11.489 13.9097C11.4284 13.9097 11.4284 13.9097 11.3667 13.9097C11.2849 13.9096 11.2031 13.9096 11.1214 13.9096C11.0808 13.9096 11.0403 13.9096 10.9985 13.9096C10.3412 13.9093 9.68391 13.9084 9.02663 13.9072C8.35212 13.9059 7.67762 13.9053 7.0031 13.9052C6.62427 13.9052 6.24543 13.9049 5.8666 13.9039C5.51033 13.903 5.15407 13.9029 4.7978 13.9034C4.66687 13.9034 4.53594 13.9032 4.40501 13.9027C4.22659 13.902 4.0482 13.9023 3.86978 13.9029C3.81768 13.9025 3.76558 13.902 3.71191 13.9016C3.35807 13.9032 3.35807 13.9032 3.05859 14.0805ZM18.1406 15.6098C18.1406 17.2804 18.1406 18.951 18.1406 20.6723C18.3321 20.6723 18.5235 20.6723 18.7207 20.6723C19.5473 20.7463 20.2033 21.0666 20.7826 21.6585C20.8874 21.7852 20.9444 21.9053 21.0132 22.0539C21.109 22.2156 21.1555 22.2922 21.3352 22.3533C21.5063 22.3682 21.67 22.3664 21.8415 22.3585C21.9031 22.3578 21.9647 22.357 22.0281 22.3563C22.2244 22.3533 22.4203 22.3467 22.6165 22.34C22.7497 22.3373 22.8829 22.3349 23.0161 22.3328C23.3422 22.327 23.6682 22.3181 23.9941 22.307C24.0275 21.6442 24.0526 20.9816 24.0679 20.3181C24.0753 20.0098 24.0852 19.702 24.1016 19.3941C24.2204 17.7112 24.2204 17.7112 23.5101 16.2474C22.9233 15.6536 22.2808 15.4871 21.4623 15.4707C21.0625 15.4686 20.6659 15.497 20.2665 15.5208C19.5649 15.5501 18.8634 15.5795 18.1406 15.6098ZM5.11585 22.2829C4.78892 22.6822 4.60758 23.1967 4.62415 23.7154C4.71527 24.384 5.00787 24.8953 5.51733 25.3273C6.017 25.6905 6.57338 25.7335 7.17188 25.682C7.70216 25.5786 8.14483 25.2588 8.45728 24.8218C8.79465 24.2592 8.91102 23.6914 8.77183 23.0408C8.58103 22.451 8.16792 22.0048 7.62671 21.7119C6.71752 21.3054 5.78199 21.5819 5.11585 22.2829ZM16.9284 22.2829C16.6014 22.6822 16.4201 23.1967 16.4366 23.7154C16.5278 24.384 16.8204 24.8953 17.3298 25.3273C17.8295 25.6905 18.3859 25.7335 18.9844 25.682C19.5147 25.5786 19.9573 25.2588 20.2698 24.8218C20.6071 24.2592 20.7235 23.6914 20.5843 23.0408C20.3935 22.451 19.9804 22.0048 19.4392 21.7119C18.53 21.3054 17.5945 21.5819 16.9284 22.2829ZM2.95312 23.2035C2.92842 23.6004 2.92842 23.6004 3.11133 23.9418C3.31443 24.0433 3.57541 23.9971 3.79688 23.9945C3.79688 23.7335 3.79688 23.4725 3.79688 23.2035C3.51844 23.2035 3.24 23.2035 2.95312 23.2035ZM9.70312 23.2035C9.70312 23.4645 9.70312 23.7256 9.70312 23.9945C11.6522 23.9945 13.6012 23.9945 15.6094 23.9945C15.6094 23.7335 15.6094 23.4725 15.6094 23.2035C13.6603 23.2035 11.7113 23.2035 9.70312 23.2035ZM21.5156 23.2035C21.5156 23.4645 21.5156 23.7256 21.5156 23.9945C22.612 23.9945 23.7083 23.9945 24.8379 23.9945C24.8379 23.7335 24.8379 23.4725 24.8379 23.2035C23.7415 23.2035 22.6452 23.2035 21.5156 23.2035Z" fill="white"/>
<path d="M11.3379 14.8184C11.5147 14.8891 11.6559 14.9497 11.8154 15.0447C11.8559 15.0689 11.8963 15.093 11.9381 15.1179C12.0032 15.1572 12.0032 15.1572 12.0696 15.1974C12.1156 15.2251 12.1616 15.2527 12.2089 15.2812C12.6174 15.529 13.0167 15.7899 13.4154 16.0529C13.7951 16.3023 14.1807 16.5395 14.5734 16.7679C15.0439 17.0439 15.443 17.2782 15.6094 17.8242C15.6666 18.2174 15.6362 18.5551 15.3984 18.8789C15.1033 19.181 14.7553 19.399 14.3965 19.6172C14.2837 19.6867 14.1708 19.7563 14.058 19.8259C14.0006 19.8611 13.9431 19.8964 13.8839 19.9327C13.6089 20.1018 13.3353 20.2732 13.0616 20.4445C13.0097 20.4769 12.9577 20.5093 12.9041 20.5427C12.6509 20.7008 12.3983 20.8597 12.1468 21.0204C12.1003 21.0501 12.0538 21.0797 12.0059 21.1103C11.9186 21.166 11.8315 21.222 11.7445 21.2782C11.687 21.3148 11.687 21.3148 11.6283 21.3523C11.595 21.3737 11.5616 21.3952 11.5272 21.4174C11.4434 21.4629 11.4434 21.4629 11.3379 21.4629C11.3379 20.9234 11.3379 20.3839 11.3379 19.8281C8.83195 19.8281 6.32602 19.8281 3.74414 19.8281C3.74414 18.697 3.74414 17.5658 3.74414 16.4004C6.25008 16.4004 8.75602 16.4004 11.3379 16.4004C11.3379 15.8783 11.3379 15.3562 11.3379 14.8184ZM12.2344 16.4531C12.2344 16.7316 12.2344 17.01 12.2344 17.2969C9.72844 17.2969 7.2225 17.2969 4.64062 17.2969C4.64062 17.8363 4.64062 18.3758 4.64062 18.9316C7.14656 18.9316 9.6525 18.9316 12.2344 18.9316C12.2344 19.2275 12.2344 19.5233 12.2344 19.8281C12.4355 19.7477 12.589 19.673 12.7691 19.5597C12.8467 19.5111 12.8467 19.5111 12.9259 19.4615C12.9805 19.4269 13.0351 19.3924 13.0913 19.3568C13.1473 19.3216 13.2033 19.2864 13.261 19.2501C14.0236 18.8226 14.0236 18.8226 14.7129 18.2988C14.7393 18.1473 14.7393 18.1473 14.7129 17.9824C14.5472 17.8324 14.3659 17.7139 14.1763 17.5964C14.1243 17.564 14.0723 17.5317 14.0187 17.4983C13.9639 17.4645 13.9091 17.4306 13.8527 17.3958C13.739 17.3252 13.6254 17.2547 13.5117 17.1842C13.4561 17.1497 13.4004 17.1152 13.3431 17.0797C13.2004 16.9909 13.0583 16.9014 12.9164 16.8113C12.8775 16.7867 12.8386 16.7621 12.7986 16.7367C12.7272 16.6915 12.656 16.6461 12.5849 16.6005C12.4224 16.4889 12.4224 16.4889 12.2344 16.4531Z" fill="white"/>
<path d="M18.9316 16.4003C19.6952 16.3676 19.6952 16.3676 20.4741 16.3344C20.6325 16.3247 20.7908 16.3151 20.9539 16.3053C21.5935 16.2822 22.1245 16.3009 22.6369 16.7187C23.0494 17.1176 23.2847 17.4968 23.3061 18.0771C23.305 18.2896 23.2869 18.4945 23.269 18.7074C23.2473 19.0772 23.2255 19.447 23.2031 19.828C21.7935 19.828 20.3839 19.828 18.9316 19.828C18.9316 18.6969 18.9316 17.5657 18.9316 16.4003ZM19.8281 17.2968C19.8281 17.8362 19.8281 18.3757 19.8281 18.9315C20.646 18.9315 21.4639 18.9315 22.3066 18.9315C22.402 17.9543 22.402 17.9543 22.0782 17.5231C21.6741 17.1916 21.2397 17.2318 20.7411 17.2605C20.6523 17.2634 20.5635 17.2661 20.4746 17.2684C20.2587 17.2743 20.0441 17.2856 19.8281 17.2968Z" fill="white"/>
<path d="M19.4585 22.6685C19.7768 23.017 19.8568 23.2924 19.8483 23.764C19.803 24.1694 19.6079 24.4671 19.298 24.7239C18.9534 24.9292 18.5826 24.9275 18.1937 24.8904C17.8418 24.7989 17.6019 24.5529 17.4027 24.2575C17.2212 23.917 17.2051 23.5747 17.2972 23.2029C17.4644 22.7764 17.7264 22.5429 18.141 22.3591C18.5997 22.2187 19.111 22.3415 19.4585 22.6685ZM18.2465 23.3611C18.159 23.5092 18.159 23.5092 18.141 23.6775C18.21 23.8327 18.2514 23.9172 18.4047 23.9939C18.5935 24.0144 18.6875 24.0169 18.8463 23.9082C18.9577 23.7454 18.9643 23.6601 18.932 23.4665C18.8373 23.3414 18.7596 23.2742 18.6189 23.2061C18.4513 23.2011 18.3749 23.2562 18.2465 23.3611Z" fill="white"/>
<path d="M7.64602 22.6685C7.9643 23.017 8.04429 23.2924 8.03576 23.764C7.9905 24.1694 7.79537 24.4671 7.48555 24.7239C7.14085 24.9292 6.77005 24.9275 6.38122 24.8904C6.02929 24.7989 5.78937 24.5529 5.5902 24.2575C5.40869 23.917 5.39256 23.5747 5.48473 23.2029C5.65187 22.7764 5.9139 22.5429 6.32848 22.3591C6.78717 22.2187 7.29853 22.3415 7.64602 22.6685ZM6.43395 23.3611C6.34649 23.5092 6.34649 23.5092 6.32848 23.6775C6.39749 23.8327 6.43891 23.9172 6.59215 23.9939C6.78104 24.0144 6.87496 24.0169 7.0338 23.9082C7.14518 23.7454 7.15177 23.6601 7.1195 23.4665C7.02479 23.3414 6.94713 23.2742 6.80639 23.2061C6.63883 23.2011 6.56243 23.2562 6.43395 23.3611Z" fill="white"/>
<path d="M17.771 4.106C18.0893 4.45453 18.1693 4.72993 18.1608 5.20148C18.1155 5.60689 17.9204 5.90459 17.6105 6.16141C17.2659 6.3667 16.8951 6.36502 16.5062 6.32785C16.1543 6.2364 15.9144 5.99038 15.7152 5.69504C15.5337 5.35447 15.5176 5.0122 15.6097 4.64035C15.7769 4.21391 16.0389 3.98041 16.4535 3.7966C16.9122 3.65619 17.4235 3.77904 17.771 4.106ZM16.559 4.79856C16.4715 4.94668 16.4715 4.94668 16.4535 5.11496C16.5225 5.27024 16.5639 5.35475 16.7172 5.43137C16.906 5.4519 17 5.45436 17.1588 5.34567C17.2702 5.18289 17.2768 5.09765 17.2445 4.90402C17.1498 4.77888 17.0721 4.71175 16.9314 4.64365C16.7638 4.63857 16.6874 4.69374 16.559 4.79856Z" fill="white"/>
<path d="M14.396 4.106C14.7143 4.45453 14.7943 4.72993 14.7858 5.20148C14.7405 5.60689 14.5454 5.90459 14.2355 6.16141C13.8909 6.3667 13.5201 6.36502 13.1312 6.32785C12.7793 6.2364 12.5394 5.99038 12.3402 5.69504C12.1587 5.35447 12.1426 5.0122 12.2347 4.64035C12.4019 4.21391 12.6639 3.98041 13.0785 3.7966C13.5372 3.65619 14.0485 3.77904 14.396 4.106ZM13.184 4.79856C13.0965 4.94668 13.0965 4.94668 13.0785 5.11496C13.1475 5.27024 13.1889 5.35475 13.3422 5.43137C13.531 5.4519 13.625 5.45436 13.7838 5.34567C13.8952 5.18289 13.9018 5.09765 13.8695 4.90402C13.7748 4.77888 13.6971 4.71175 13.5564 4.64365C13.3888 4.63857 13.3124 4.69374 13.184 4.79856Z" fill="white"/>
<path d="M11.021 4.106C11.3393 4.45453 11.4193 4.72993 11.4108 5.20148C11.3655 5.60689 11.1704 5.90459 10.8605 6.16141C10.5159 6.3667 10.1451 6.36502 9.75622 6.32785C9.40429 6.2364 9.16437 5.99038 8.9652 5.69504C8.78369 5.35447 8.76756 5.0122 8.85973 4.64035C9.02687 4.21391 9.2889 3.98041 9.70348 3.7966C10.1622 3.65619 10.6735 3.77904 11.021 4.106ZM9.80895 4.79856C9.72149 4.94668 9.72149 4.94668 9.70348 5.11496C9.77249 5.27024 9.81391 5.35475 9.96715 5.43137C10.156 5.4519 10.25 5.45436 10.4088 5.34567C10.5202 5.18289 10.5268 5.09765 10.4945 4.90402C10.3998 4.77888 10.3221 4.71175 10.1814 4.64365C10.0138 4.63857 9.93743 4.69374 9.80895 4.79856Z" fill="white"/>
</g>
<defs>
<clipPath id="clip0_3853_68025">
<rect width="27" height="27" fill="white"/>
</clipPath>
</defs>
</svg>
