<svg width="23" height="23" viewBox="0 0 23 23" fill="none" xmlns="http://www.w3.org/2000/svg">
<path d="M18.7595 9.38783C18.7202 9.34854 14.8735 5.4625 13.0268 3.49792C12.6204 3.1005 12.0752 2.87705 11.5068 2.875C10.3741 2.875 9.45313 3.73367 9.45313 4.79167H1.78646C1.53229 4.79167 1.28854 4.89263 1.10881 5.07236C0.929092 5.25208 0.828125 5.49583 0.828125 5.75V19.1667C0.828125 19.4208 0.929092 19.6646 1.10881 19.8443C1.28854 20.024 1.53229 20.125 1.78646 20.125H15.2031C15.4573 20.125 15.701 20.024 15.8808 19.8443C16.0605 19.6646 16.1615 19.4208 16.1615 19.1667V13.3735C17.0254 12.4927 17.8915 11.614 18.7595 10.7372C18.9374 10.5577 19.0372 10.3152 19.0372 10.0625C19.0372 9.80979 18.9374 9.56731 18.7595 9.38783ZM11.6372 15.2768L11.5068 15.3333L11.3688 15.295V11.5H10.4105C8.71329 11.5326 7.2135 12.1517 5.85554 13.3764C6.26763 11.2537 7.38888 8.625 10.4105 8.625H11.3688V4.83192L11.5068 4.79167L11.6544 4.83958C13.0306 6.30104 15.5366 8.85212 16.7307 10.0625C16.4883 10.3088 12.5696 14.3003 11.6372 15.2768ZM2.74479 18.2083V6.70833H10.4115V7.66667C5.94563 7.66667 4.66146 12.3347 4.66146 15.8125V16.2917C6.282 13.8211 8.11146 12.5034 10.4115 12.4583V15.3333C10.4115 15.8614 10.9021 16.2917 11.5068 16.2917C11.8557 16.2917 12.1547 16.1402 12.353 15.917C12.8696 15.3755 13.5433 14.6797 14.2467 13.9591V18.2083H2.74479Z" fill="#EA4195"/>
</svg>
