<svg width="19" height="18" viewBox="0 0 19 18" fill="none" xmlns="http://www.w3.org/2000/svg">
<path d="M18.6409 1.72226C18.6409 0.77249 17.8571 0 16.8933 0H1.74759C0.78385 0 0 0.77249 0 1.72226V12.0558C0 13.0056 0.78385 13.7781 1.74759 13.7781H8.73793C9.05972 13.7781 9.32046 13.5211 9.32046 13.204C9.32046 13.0747 9.27549 12.9567 9.20232 12.8607C9.09607 12.7213 8.92853 12.6299 8.73793 12.6299H1.74759C1.4265 12.6299 1.16506 12.3725 1.16506 12.0558V5.74086H17.4759V6.31495C17.4759 6.44423 17.5208 6.56226 17.594 6.65825C17.7003 6.79764 17.8678 6.88904 18.0584 6.88904C18.3802 6.88904 18.6409 6.63207 18.6409 6.31495V1.72226ZM17.4759 2.87043H1.16506V1.72226C1.16506 1.40559 1.4265 1.14817 1.74759 1.14817H16.8933C17.2144 1.14817 17.4759 1.40559 17.4759 1.72226V2.87043Z" fill="#18367C"/>
<path d="M14.1445 10.4649C14.2262 10.5131 14.3158 10.5369 14.4053 10.5369C14.5125 10.5369 14.6193 10.5026 14.7119 10.4348L16.3697 9.21913C16.5233 9.10632 16.6157 8.91667 16.6157 8.71342C16.6157 8.51016 16.5233 8.32052 16.3697 8.2077L15.8493 7.82599L14.7119 6.99205C14.5421 6.86732 14.3242 6.85565 14.1447 6.9619C13.9648 7.06742 13.8527 7.27359 13.8527 7.49776V8.15421C11.982 8.45059 10.5371 10.278 10.5371 12.3604C10.5371 12.6961 10.7845 12.9682 11.0897 12.9682C11.395 12.9682 11.6423 12.6961 11.6423 12.3604C11.6423 10.9388 12.5872 9.66625 13.8527 9.38251V9.92907C13.8527 10.1532 13.9648 10.3594 14.1445 10.4649Z" fill="#18367C"/>
<path d="M12.4184 16.1074L14.1868 17.3231C14.2856 17.391 14.3995 17.4252 14.5138 17.4252C14.6093 17.4252 14.7048 17.4014 14.7921 17.3533C14.9838 17.2477 15.1033 17.0416 15.1033 16.8174V16.1609C17.0994 15.8643 18.64 14.0937 18.64 11.9545C18.64 11.6188 18.3762 11.3467 18.0506 11.3467C17.725 11.3467 17.4611 11.6188 17.4611 11.9545C17.4611 13.4224 16.447 14.6503 15.1033 14.9325V14.386C15.1033 14.1618 14.9838 13.9556 14.7921 13.8501C14.6006 13.7441 14.3681 13.7555 14.187 13.8802L12.4187 15.0959C12.2548 15.2088 12.1562 15.3984 12.1562 15.6017C12.1562 15.8049 12.2546 15.9946 12.4184 16.1074Z" fill="#18367C"/>
</svg>
