<svg width="20" height="18" viewBox="0 0 20 18" fill="none" xmlns="http://www.w3.org/2000/svg">
<path d="M18.2461 10H15.5603C15.0799 10 14.8398 10 14.6372 10.1082C14.4355 10.2173 14.3017 10.4171 14.0349 10.8167L13.2906 11.9333C13.0248 12.3329 12.8909 12.5328 12.6883 12.6418C12.4858 12.75 12.2456 12.75 11.7653 12.75H8.22693C7.74659 12.75 7.50643 12.75 7.30384 12.6418C7.10218 12.5328 6.96834 12.3329 6.70159 11.9333L5.95726 10.8167C5.69143 10.4171 5.55759 10.2173 5.35501 10.1082C5.15243 10 4.91226 10 4.43193 10H1.74609" stroke="white" stroke-width="1.83333"/>
<path d="M5.41276 5.41406L2.01468 8.81215C1.84276 8.98401 1.74615 9.21713 1.74609 9.46023V14.5807C1.74609 15.067 1.93925 15.5333 2.28306 15.8771C2.62688 16.2209 3.0932 16.4141 3.57943 16.4141H16.4128C16.899 16.4141 17.3653 16.2209 17.7091 15.8771C18.0529 15.5333 18.2461 15.067 18.2461 14.5807V9.46023C18.246 9.21713 18.1494 8.98401 17.9775 8.81215L14.5794 5.41406" stroke="white" stroke-width="1.83333" stroke-linecap="round"/>
<path d="M14.5768 10.9167V4.64942C14.5768 4.42483 14.5768 4.313 14.5512 4.20758C14.5287 4.11374 14.4916 4.02402 14.4412 3.94175C14.3852 3.85008 14.3055 3.77033 14.1478 3.61175L12.7142 2.18083C12.5556 2.02225 12.4758 1.9425 12.3842 1.88567C12.3019 1.83524 12.2122 1.79811 12.1183 1.77567C12.0138 1.75 11.902 1.75 11.6774 1.75H7.61016C6.84016 1.75 6.45516 1.75 6.16091 1.89942C5.90195 2.03128 5.69144 2.2418 5.55957 2.50075C5.41016 2.79408 5.41016 3.17908 5.41016 3.95V10.9167" stroke="white" stroke-width="1.83333"/>
<path d="M10.9102 1.75V3.95C10.9102 4.46333 10.9102 4.72 11.0101 4.91617C11.098 5.08864 11.2382 5.22887 11.4107 5.31675C11.6068 5.41667 11.8635 5.41667 12.3768 5.41667H14.5768" stroke="white" stroke-width="1.83333"/>
</svg>
