<svg width="15" height="18" viewBox="0 0 15 18" fill="none" xmlns="http://www.w3.org/2000/svg">
<path d="M10.125 4.625H4.875M10.125 8.125H4.875M10.125 11.625H6.625M1.375 1.125H13.625V16.875L12.722 16.1015C12.4048 15.8297 12.0009 15.6803 11.5832 15.6803C11.1655 15.6803 10.7615 15.8297 10.4444 16.1015L9.54138 16.875L8.63925 16.1015C8.32202 15.8294 7.91791 15.6799 7.5 15.6799C7.08209 15.6799 6.67798 15.8294 6.36075 16.1015L5.45862 16.875L4.55563 16.1015C4.23846 15.8297 3.83452 15.6803 3.41681 15.6803C2.9991 15.6803 2.59517 15.8297 2.278 16.1015L1.375 16.875V1.125Z" stroke="#2A85FF" stroke-width="1.3125" stroke-linecap="round" stroke-linejoin="round"/>
</svg>
