<svg width="18" height="16" viewBox="0 0 18 16" fill="none" xmlns="http://www.w3.org/2000/svg">
<path d="M15.0078 0.4375H8.13281C7.49484 0.438182 6.8832 0.691917 6.43209 1.14303C5.98098 1.59414 5.72724 2.20578 5.72656 2.84375V7.3125H12.3167L10.0531 5.04848C9.9296 4.9185 9.86177 4.74542 9.86406 4.56614C9.86636 4.38687 9.9386 4.21559 10.0654 4.08881C10.1921 3.96203 10.3634 3.8898 10.5427 3.8875C10.722 3.88521 10.8951 3.95303 11.025 4.07652L14.4625 7.51402C14.5914 7.64294 14.6637 7.81774 14.6637 8C14.6637 8.18226 14.5914 8.35706 14.4625 8.48598L11.025 11.9235C10.8951 12.047 10.722 12.1148 10.5427 12.1125C10.3634 12.1102 10.1921 12.038 10.0654 11.9112C9.9386 11.7844 9.86636 11.6131 9.86406 11.4339C9.86177 11.2546 9.9296 11.0815 10.0531 10.9515L12.3167 8.6875H5.72656V13.1562C5.72656 14.5334 7.17848 15.5625 8.47656 15.5625H15.0078C15.6458 15.5618 16.2574 15.3081 16.7085 14.857C17.1596 14.4059 17.4134 13.7942 17.4141 13.1562V2.84375C17.4134 2.20578 17.1596 1.59414 16.7085 1.14303C16.2574 0.691917 15.6458 0.438182 15.0078 0.4375ZM1.60156 7.3125C1.41923 7.3125 1.24436 7.38493 1.11543 7.51386C0.986495 7.6428 0.914063 7.81766 0.914062 8C0.914063 8.18234 0.986495 8.35721 1.11543 8.48614C1.24436 8.61507 1.41923 8.6875 1.60156 8.6875H5.72656V7.3125H1.60156Z" fill="#2A85FF"/>
</svg>
