<svg width="18" height="18" viewBox="0 0 18 18" fill="none" xmlns="http://www.w3.org/2000/svg">
<path d="M8.69986 0.00012903C8.73446 0.00020228 8.76906 0.000275531 8.80471 0.000351001C9.30129 0.00203924 9.78846 0.0105668 10.2762 0.112716C10.3094 0.119469 10.3425 0.126222 10.3766 0.133179C12.4014 0.556679 14.3169 1.64058 15.5789 3.30764C15.593 3.32595 15.6071 3.34427 15.6217 3.36314C16.4545 4.44635 17.0151 5.68873 17.2891 7.02726C17.2941 7.0517 17.2991 7.07613 17.3043 7.1013C17.4054 7.6331 17.4271 8.15902 17.4251 8.69907C17.425 8.73367 17.4249 8.76827 17.4249 8.80391C17.4232 9.30045 17.4146 9.78758 17.3125 10.2753C17.3024 10.325 17.3024 10.325 17.292 10.3757C16.9436 12.0414 16.1842 13.537 15.0011 14.7618C14.9807 14.7829 14.9603 14.804 14.9394 14.8257C14.6789 15.0943 14.4157 15.3507 14.1173 15.5775C14.0989 15.5917 14.0805 15.6058 14.0616 15.6204C12.9783 16.4531 11.7359 17.0136 10.3973 17.2876C10.3729 17.2926 10.3484 17.2976 10.3233 17.3027C9.82441 17.3975 9.33068 17.4247 8.82385 17.4236C8.72393 17.4235 8.62404 17.4243 8.52412 17.4252C8.06955 17.4267 7.63119 17.3857 7.18298 17.3109C7.12501 17.3013 7.12501 17.3013 7.06586 17.2915C6.97763 17.2757 6.89022 17.2581 6.8027 17.2387C6.75549 17.2283 6.75549 17.2283 6.70732 17.2176C5.17449 16.8612 3.7914 16.0885 2.6621 14.9997C2.62933 14.9683 2.62933 14.9683 2.59591 14.9363C2.284 14.6363 2.00017 14.3291 1.74432 13.98C1.72267 13.951 1.72267 13.951 1.70057 13.9214C1.4791 13.6243 1.28082 13.3169 1.09848 12.9944C1.08481 12.9703 1.07114 12.9463 1.05706 12.9215C0.614301 12.1352 0.316913 11.2797 0.136095 10.3964C0.131087 10.3719 0.126078 10.3475 0.120917 10.3223C0.0198309 9.79054 -0.00192757 9.26462 0.000129041 8.72456C0.000202298 8.68997 0.000275556 8.65537 0.000351033 8.61972C0.00203942 8.12318 0.0105678 7.63605 0.112726 7.14835C0.11948 7.11521 0.126233 7.08208 0.133191 7.04794C0.477207 5.40351 1.22218 3.90841 2.39016 2.69585C2.41165 2.67344 2.43314 2.65102 2.45528 2.62793C2.76611 2.30544 3.08214 2.00839 3.4439 1.74417C3.48303 1.715 3.52216 1.68584 3.56128 1.65667C3.83966 1.45146 4.12868 1.26851 4.42966 1.09838C4.4537 1.08471 4.47774 1.07104 4.50251 1.05696C5.28892 0.614245 6.14453 0.316885 7.02789 0.136083C7.05233 0.131075 7.07677 0.126066 7.10194 0.120906C7.63379 0.0198291 8.15975 -0.0019274 8.69986 0.00012903ZM4.77329 4.44599C4.74359 4.47556 4.71388 4.50514 4.68327 4.53561C4.63766 4.58181 4.63766 4.58181 4.59112 4.62894C4.56019 4.65948 4.52925 4.69002 4.49738 4.72148C4.45308 4.76598 4.45308 4.76598 4.40789 4.81137C4.38106 4.83831 4.35423 4.86525 4.32659 4.893C4.22161 5.01868 4.19227 5.10932 4.1896 5.2726C4.23606 5.56042 4.56801 5.79593 4.76525 5.99227C4.80907 6.03609 4.80907 6.03609 4.85377 6.08079C4.93305 6.16005 5.01241 6.23923 5.0918 6.31838C5.17506 6.40142 5.25823 6.48455 5.3414 6.56768C5.49855 6.72471 5.65578 6.88165 5.81305 7.03856C5.99224 7.21735 6.17133 7.39625 6.35042 7.57515C6.71848 7.94282 7.08666 8.31036 7.45492 8.67783C7.4062 8.78914 7.34654 8.86239 7.26049 8.9477C7.23418 8.97395 7.20788 9.0002 7.18077 9.02725C7.15188 9.05573 7.12299 9.08422 7.09322 9.11357C7.04656 9.15999 6.99989 9.20642 6.95322 9.25285C6.9031 9.30265 6.8529 9.35237 6.80267 9.40206C6.69793 9.50571 6.59346 9.60964 6.48904 9.71362C6.22965 9.97183 5.96994 10.2297 5.71007 10.4875C5.50808 10.6878 5.30619 10.8882 5.10466 11.089C5.00091 11.1924 4.89693 11.2955 4.79276 11.3984C4.71278 11.4776 4.63312 11.5571 4.55341 11.6366C4.52452 11.665 4.49563 11.6934 4.46586 11.7227C4.4264 11.7622 4.4264 11.7622 4.38614 11.8025C4.36323 11.8252 4.34032 11.8479 4.31672 11.8714C4.21807 11.9914 4.19213 12.0856 4.1896 12.2403C4.22157 12.4259 4.33386 12.5253 4.46365 12.6545C4.50477 12.6972 4.54584 12.7399 4.58687 12.7826C4.63214 12.8292 4.67747 12.8757 4.72284 12.9221C4.74477 12.9448 4.76671 12.9675 4.78931 12.9909C4.94348 13.146 5.0467 13.2307 5.27308 13.2344C5.56093 13.188 5.79646 12.856 5.99281 12.6588C6.02203 12.6296 6.05124 12.6004 6.08134 12.5703C6.1606 12.491 6.23979 12.4117 6.31895 12.3323C6.40199 12.249 6.48514 12.1659 6.56827 12.0827C6.72531 11.9256 6.88227 11.7684 7.03919 11.6111C7.218 11.4319 7.39691 11.2529 7.57583 11.0738C7.94353 10.7058 8.31111 10.3376 8.67861 9.96939C8.78993 10.0181 8.86319 10.0778 8.94851 10.1638C8.97476 10.1901 9.00102 10.2164 9.02807 10.2435C9.05655 10.2724 9.08504 10.3013 9.11439 10.3311C9.16082 10.3777 9.20725 10.4244 9.25368 10.471C9.30349 10.5212 9.35321 10.5714 9.40291 10.6216C9.50657 10.7263 9.61051 10.8308 9.7145 10.9352C9.97273 11.1945 10.2306 11.4542 10.4884 11.7141C10.6887 11.9161 10.8892 12.1179 11.09 12.3194C11.1934 12.4232 11.2965 12.5272 11.3994 12.6313C11.4786 12.7113 11.5581 12.7909 11.6376 12.8706C11.666 12.8995 11.6944 12.9284 11.7237 12.9582C11.7632 12.9976 11.7632 12.9976 11.8036 13.0379C11.8377 13.0723 11.8377 13.0723 11.8724 13.1073C11.9925 13.206 12.0867 13.2319 12.2414 13.2344C12.427 13.2024 12.5265 13.0902 12.6556 12.9604C12.6983 12.9193 12.741 12.8782 12.7838 12.8372C12.8303 12.7919 12.8768 12.7466 12.9233 12.7012C12.946 12.6793 12.9687 12.6574 12.992 12.6348C13.1472 12.4806 13.2319 12.3774 13.2356 12.151C13.1891 11.8632 12.8572 11.6277 12.66 11.4314C12.6307 11.4022 12.6015 11.3729 12.5714 11.3428C12.4922 11.2636 12.4128 11.1844 12.3334 11.1053C12.2501 11.0222 12.167 10.9391 12.0838 10.856C11.9267 10.6989 11.7694 10.542 11.6122 10.3851C11.433 10.2063 11.2539 10.0274 11.0748 9.84849C10.7067 9.48082 10.3386 9.11327 9.97029 8.74581C10.019 8.6345 10.0787 8.56125 10.1647 8.47594C10.2042 8.43656 10.2042 8.43656 10.2444 8.39639C10.2733 8.3679 10.3022 8.33942 10.332 8.31007C10.3787 8.26364 10.4253 8.21722 10.472 8.17079C10.5221 8.12099 10.5723 8.07127 10.6225 8.02157C10.7273 7.91792 10.8317 7.81399 10.9362 7.71001C11.1956 7.4518 11.4553 7.19391 11.7151 6.93618C11.9171 6.73585 12.119 6.53542 12.3205 6.33462C12.4243 6.23127 12.5283 6.12816 12.6324 6.02522C12.7124 5.94605 12.7921 5.86654 12.8718 5.78709C12.9007 5.75867 12.9296 5.73026 12.9593 5.70098C12.9988 5.66146 12.9988 5.66146 13.0391 5.62114C13.0734 5.58705 13.0734 5.58705 13.1085 5.55227C13.2071 5.43225 13.2331 5.33801 13.2356 5.18338C13.2036 4.99773 13.0913 4.89832 12.9616 4.76915C12.9204 4.72648 12.8794 4.68377 12.8383 4.64103C12.7931 4.59446 12.7477 4.54795 12.7024 4.50149C12.6804 4.47881 12.6585 4.45614 12.6359 4.43277C12.4817 4.27765 12.3785 4.19293 12.1521 4.18922C11.8643 4.23568 11.6288 4.5676 11.4324 4.76482C11.4032 4.79403 11.374 4.82324 11.3439 4.85333C11.2646 4.93261 11.1854 5.01196 11.1063 5.09134C11.0232 5.1746 10.9401 5.25775 10.8569 5.34092C10.6999 5.49805 10.5429 5.65527 10.386 5.81252C10.2072 5.9917 10.0283 6.17078 9.84938 6.34985C9.48168 6.71787 9.11409 7.08602 8.7466 7.45424C8.63528 7.40553 8.56202 7.34588 8.4767 7.25984C8.45045 7.23353 8.42419 7.20723 8.39714 7.18012C8.36866 7.15123 8.34017 7.12235 8.31082 7.09258C8.26439 7.04592 8.21796 6.99926 8.17153 6.95259C8.12172 6.90248 8.072 6.85228 8.0223 6.80206C7.91864 6.69732 7.8147 6.59287 7.71071 6.48846C7.45248 6.22909 7.19456 5.96941 6.93681 5.70956C6.73646 5.50758 6.53601 5.30571 6.33519 5.1042C6.23183 5.00046 6.12871 4.89649 6.02576 4.79233C5.94658 4.71235 5.86707 4.6327 5.78761 4.553C5.75919 4.52411 5.73077 4.49522 5.7015 4.46546C5.66197 4.426 5.66197 4.426 5.62165 4.38575C5.58755 4.35139 5.58755 4.35138 5.55277 4.31633C5.45347 4.23472 5.35753 4.19699 5.23059 4.18072C5.03902 4.20408 4.90624 4.31363 4.77329 4.44599Z" fill="#FF4040"/>
</svg>
