<svg width="20" height="19" viewBox="0 0 20 19" fill="none" xmlns="http://www.w3.org/2000/svg">
<path d="M1.8737 0.875H15.2904C15.7987 0.875 16.2862 1.07693 16.6457 1.43638C17.0051 1.79582 17.207 2.28333 17.207 2.79167V9.57667C15.7651 9.33345 14.2847 9.64872 13.067 10.4583H9.54036V14.2917H10.5754C10.4699 14.9433 10.4699 15.5854 10.5754 16.2083H1.8737C1.36537 16.2083 0.877855 16.0064 0.51841 15.647C0.158965 15.2875 -0.0429687 14.8 -0.0429688 14.2917V2.79167C-0.0429688 1.7375 0.819531 0.875 1.8737 0.875ZM1.8737 4.70833V8.54167H7.6237V4.70833H1.8737ZM9.54036 4.70833V8.54167H15.2904V4.70833H9.54036ZM1.8737 10.4583V14.2917H7.6237V10.4583H1.8737ZM15.712 12.375V14.2917H19.5454V16.2083H15.712V18.125L12.837 15.25L15.712 12.375Z" fill="#2A85FF"/>
</svg>
