<svg width="21" height="19" viewBox="0 0 21 19" fill="none" xmlns="http://www.w3.org/2000/svg">
<path d="M1 16.5833C1.20824 16.8735 1.48397 17.1085 1.80339 17.2682C2.1228 17.4279 2.4763 17.5075 2.83333 17.5C3.19037 17.5075 3.54386 17.4279 3.86328 17.2682C4.18269 17.1085 4.45843 16.8735 4.66667 16.5833C4.87491 16.2932 5.15064 16.0582 5.47006 15.8984C5.78947 15.7387 6.14296 15.6592 6.5 15.6667C6.85704 15.6592 7.21053 15.7387 7.52994 15.8984C7.84936 16.0582 8.12509 16.2932 8.33333 16.5833C8.54157 16.8735 8.81731 17.1085 9.13672 17.2682C9.45614 17.4279 9.80963 17.5075 10.1667 17.5C10.5237 17.5075 10.8772 17.4279 11.1966 17.2682C11.516 17.1085 11.7918 16.8735 12 16.5833C12.2082 16.2932 12.484 16.0582 12.8034 15.8984C13.1228 15.7387 13.4763 15.6592 13.8333 15.6667C14.1904 15.6592 14.5439 15.7387 14.8633 15.8984C15.1827 16.0582 15.4584 16.2932 15.6667 16.5833C15.8749 16.8735 16.1506 17.1085 16.4701 17.2682C16.7895 17.4279 17.143 17.5075 17.5 17.5C17.857 17.5075 18.2105 17.4279 18.5299 17.2682C18.8494 17.1085 19.1251 16.8735 19.3333 16.5833M2.83333 14.75L1.91667 10.1667H18.4167L16.5833 13.8333M3.75 10.1667V4.66667H11.0833L14.75 10.1667M5.58333 4.66667V1H4.66667" stroke="white" stroke-width="1.40828" stroke-linecap="round" stroke-linejoin="round"/>
</svg>
