<svg width="30" height="30" viewBox="0 0 30 30" fill="none" xmlns="http://www.w3.org/2000/svg">
<g clip-path="url(#clip0_2431_45443)">
<path d="M8.60196 4.17576C8.7306 4.27739 8.7306 4.27739 8.78919 4.39457C8.81299 4.60876 8.80175 4.72206 8.7013 4.91459C8.53756 5.05377 8.43284 5.08505 8.21813 5.07161C8.00653 5.01953 7.84367 4.9026 7.66241 4.78482C6.75843 4.24294 5.67932 4.14075 4.6652 4.3845C4.04906 4.58411 3.47006 4.89759 2.98841 5.33207C2.93584 5.3766 2.93584 5.3766 2.88221 5.42202C2.26154 5.98589 1.81026 6.91812 1.74757 7.7558C1.71602 9.01401 1.93325 10.0566 2.81263 11.0157C3.54366 11.782 4.49289 12.175 5.5409 12.258C6.52719 12.277 7.43204 11.9761 8.20325 11.3672C8.24918 11.331 8.2951 11.2947 8.34241 11.2574C9.05359 10.6615 9.54307 9.76939 9.6681 8.8477C9.73503 8.01836 9.66341 7.26104 9.29822 6.50395C9.18662 6.27108 9.18217 6.11199 9.25794 5.85942C9.3202 5.74589 9.3202 5.74589 9.43372 5.68364C9.84493 5.63795 9.84493 5.63795 10.0247 5.78068C10.1515 5.936 10.22 6.07992 10.2943 6.26591C10.3187 6.32566 10.3431 6.3854 10.3682 6.44696C10.4236 6.60353 10.4579 6.75139 10.4884 6.9141C10.5256 6.91394 10.5628 6.91378 10.6011 6.91361C11.5058 6.90973 12.4105 6.90682 13.3152 6.905C13.7527 6.90409 14.1902 6.90286 14.6277 6.90084C15.0091 6.89909 15.3904 6.89796 15.7718 6.89757C15.9737 6.89734 16.1756 6.8968 16.3775 6.89552C16.6029 6.8941 16.8284 6.89407 17.0538 6.89415C17.1207 6.89352 17.1876 6.89289 17.2565 6.89223C17.318 6.89248 17.3796 6.89272 17.443 6.89297C17.5229 6.89272 17.5229 6.89272 17.6045 6.89248C17.8389 6.92638 17.9951 7.03061 18.1495 7.20707C18.3125 7.46773 18.2893 7.72927 18.288 8.0256C18.288 8.07934 18.288 8.13309 18.2881 8.18847C18.288 8.36633 18.2876 8.54418 18.2871 8.72204C18.287 8.84528 18.2869 8.96851 18.2868 9.09175C18.2866 9.41627 18.286 9.7408 18.2854 10.0653C18.2848 10.3964 18.2845 10.7275 18.2842 11.0586C18.2836 11.7083 18.2826 12.3581 18.2814 13.0079C18.6101 13.0079 18.9388 13.0079 19.2775 13.0079C19.277 12.9237 19.2764 12.8396 19.2759 12.753C19.2711 11.9598 19.2676 11.1667 19.2653 10.3735C19.2641 9.96578 19.2625 9.55803 19.2598 9.15028C19.2572 8.75669 19.2558 8.36311 19.2552 7.9695C19.2548 7.81943 19.254 7.66936 19.2527 7.51929C19.251 7.30889 19.2508 7.09853 19.2509 6.88813C19.25 6.82626 19.2492 6.76439 19.2483 6.70064C19.2504 6.33453 19.2938 6.04478 19.5118 5.74223C19.8103 5.50929 20.1468 5.5491 20.5079 5.56645C20.5052 5.5064 20.5025 5.44635 20.4997 5.38449C20.4975 5.30476 20.4954 5.22504 20.4933 5.14531C20.4913 5.10584 20.4894 5.06638 20.4873 5.02572C20.4832 4.81567 20.5028 4.69607 20.6114 4.51451C20.749 4.38846 20.7942 4.35556 20.9767 4.36162C21.0154 4.36154 21.054 4.36146 21.0939 4.36139C21.2721 4.41186 21.3379 4.47786 21.4454 4.62895C21.4626 4.80031 21.4678 4.94272 21.4601 5.11235C21.4553 5.2622 21.4504 5.41205 21.4454 5.56645C21.7935 5.56645 22.1415 5.56645 22.5001 5.56645C22.4967 5.45142 22.4933 5.33638 22.4898 5.21786C22.4871 5.06672 22.4844 4.91559 22.4818 4.76445C22.4794 4.68865 22.4769 4.61286 22.4744 4.53476C22.4734 4.46169 22.4725 4.38861 22.4715 4.31332C22.47 4.24612 22.4685 4.17892 22.4669 4.10969C22.5104 3.86892 22.6047 3.78358 22.7931 3.63286C22.9689 3.59623 22.9689 3.59623 23.1447 3.63286C23.333 3.78358 23.4273 3.86892 23.4709 4.10969C23.4694 4.17689 23.4678 4.24409 23.4662 4.31332C23.4653 4.3864 23.4643 4.45947 23.4634 4.53476C23.4609 4.61056 23.4585 4.68635 23.4559 4.76445C23.4546 4.84138 23.4533 4.9183 23.4519 4.99756C23.4485 5.18726 23.4437 5.37682 23.4376 5.56645C23.5267 5.56339 23.5267 5.56339 23.6175 5.56027C23.6967 5.55862 23.7759 5.55702 23.8551 5.55546C23.8941 5.55399 23.9331 5.55252 23.9732 5.551C24.2519 5.5469 24.4389 5.58217 24.6681 5.74223C24.9278 6.11999 25.0428 6.55091 25.178 6.98483C25.2041 7.06731 25.2303 7.14978 25.2564 7.23223C25.3253 7.4495 25.3935 7.66695 25.4616 7.88443C25.5293 8.10008 25.5976 8.31555 25.6658 8.53104C25.7849 8.90761 25.903 9.28449 26.0206 9.66154C26.1052 9.93225 26.1916 10.2023 26.2789 10.4722C26.3227 10.6096 26.3665 10.7471 26.4103 10.8845C26.4308 10.9465 26.4512 11.0085 26.4722 11.0724C26.6401 11.6039 26.6401 11.6039 26.5431 11.8946C26.403 12.0562 26.3174 12.0693 26.1036 12.096C25.857 12.0652 25.8164 12.0269 25.6642 11.836C25.6023 11.6858 25.5501 11.5437 25.5031 11.3892C25.4901 11.3493 25.4772 11.3094 25.4639 11.2684C25.3712 10.977 25.3712 10.977 25.3712 10.8399C23.6697 10.8399 21.9681 10.8399 20.215 10.8399C20.215 11.5553 20.215 12.2707 20.215 13.0079C20.519 13.0051 20.823 13.0024 21.1362 12.9996C21.3293 12.9984 21.5223 12.9973 21.7154 12.9964C22.0216 12.995 22.3277 12.9934 22.6339 12.9902C22.8808 12.9876 23.1278 12.9862 23.3747 12.9856C23.4688 12.9852 23.5628 12.9843 23.6568 12.9831C23.7889 12.9814 23.921 12.9811 24.0531 12.9812C24.1282 12.9807 24.2033 12.9802 24.2806 12.9797C24.5463 13.015 24.6814 13.0922 24.9025 13.2422C25.1061 13.5266 25.1018 13.7918 25.0954 14.128C25.0952 14.1782 25.0949 14.2284 25.0947 14.2802C25.0937 14.4396 25.0915 14.599 25.0892 14.7583C25.0884 14.8668 25.0876 14.9753 25.0868 15.0838C25.0851 15.3489 25.0816 15.6139 25.0783 15.8789C25.697 15.8789 26.3158 15.8789 26.9533 15.8789C26.8845 15.6788 26.8845 15.6788 26.8143 15.4745C26.7698 15.3436 26.7254 15.2127 26.6811 15.0818C26.6504 14.9915 26.6196 14.9014 26.5885 14.8113C26.2533 13.8378 26.2533 13.8378 26.2501 13.418C26.3673 13.2386 26.3673 13.2386 26.5431 13.125C26.7626 13.0904 26.8879 13.0778 27.0712 13.2103C27.2372 13.4229 27.2995 13.6476 27.3771 13.9037C27.3937 13.9564 27.4103 14.0091 27.4274 14.0634C27.48 14.2314 27.5315 14.3996 27.5831 14.5679C27.6187 14.6816 27.6543 14.7953 27.69 14.9089C27.7237 15.017 27.7574 15.125 27.791 15.233C27.8069 15.2843 27.8228 15.3355 27.8392 15.3882C27.8537 15.4356 27.8682 15.4829 27.8831 15.5316C27.896 15.5734 27.9088 15.6151 27.922 15.658C27.9493 15.7618 27.9493 15.7618 27.9493 15.8789C27.9954 15.8777 28.0415 15.8765 28.089 15.8752C28.2988 15.8703 28.5086 15.8673 28.7184 15.8643C28.7909 15.8623 28.8634 15.8604 28.9381 15.8583C29.5405 15.8519 29.5405 15.8519 29.7506 15.9824C30.1392 16.3669 30.0726 16.9839 30.0785 17.4974C30.065 18.5632 29.5457 19.3896 29.0109 20.2801C28.8502 20.5515 28.7032 20.8308 28.5536 21.1084C28.4987 21.2078 28.4439 21.3071 28.389 21.4064C28.1846 21.7818 28.005 22.1678 27.8322 22.5586C28.0352 22.7385 28.1903 22.8266 28.4547 22.8846C28.8157 22.9642 28.8157 22.9642 28.9454 23.1446C28.9733 23.3957 28.9864 23.5389 28.8649 23.7598C28.5807 23.9222 28.291 23.8847 27.9793 23.8152C27.5392 23.6678 27.2043 23.3652 26.8947 23.0274C26.8947 22.9887 26.8947 22.95 26.8947 22.9102C26.8403 22.883 26.8403 22.883 26.7848 22.8553C26.7042 22.815 26.6237 22.7747 26.5431 22.7344C26.2559 22.6994 25.9997 22.6948 25.761 22.8786C25.6288 23.0018 25.5043 23.132 25.3785 23.2618C24.9858 23.6634 24.602 23.8536 24.0382 23.8623C23.3973 23.8561 22.9954 23.5884 22.5514 23.1372C22.5029 23.0863 22.4544 23.0354 22.4045 22.983C22.203 22.7922 22.0523 22.7173 21.775 22.7124C21.5044 22.72 21.3604 22.7886 21.1525 22.9688C21.0966 23.0339 21.0417 23.0999 20.9877 23.1665C20.6714 23.5525 20.2409 23.8129 19.7416 23.8674C19.0284 23.8762 18.621 23.6931 18.1171 23.2068C18.0894 23.1796 18.0616 23.1524 18.033 23.1244C17.7267 22.8055 17.7267 22.8055 17.3182 22.7051C16.9177 22.7269 16.7135 22.9523 16.4467 23.2288C16.0482 23.6374 15.6451 23.8535 15.0734 23.8623C14.4325 23.8561 14.0306 23.5884 13.5866 23.1372C13.5381 23.0863 13.4896 23.0354 13.4396 22.983C13.1958 22.7521 13.0039 22.7041 12.6745 22.7122C12.3271 22.7692 12.1278 23.0234 11.9205 23.2881C11.6205 23.6109 11.213 23.8198 10.7768 23.8674C10.0636 23.8762 9.65612 23.6931 9.1523 23.2068C9.12454 23.1796 9.09679 23.1524 9.0682 23.1244C8.76187 22.8055 8.76187 22.8055 8.3534 22.7051C7.9529 22.7269 7.74868 22.9523 7.48182 23.2288C7.08488 23.6358 6.68199 23.8534 6.11219 23.8623C5.43106 23.8516 5.11103 23.6115 4.62903 23.1446C4.31715 22.8666 4.13741 22.7088 3.71374 22.7143C3.3636 22.7649 3.16343 23.0227 2.95568 23.2881C2.61812 23.6513 2.18088 23.8468 1.69202 23.8697C1.49539 23.8652 1.42379 23.8592 1.25623 23.7488C1.16058 23.5949 1.11784 23.5021 1.11341 23.3204C1.20842 23.1161 1.27539 23.0366 1.46497 22.9102C1.54523 22.8971 1.62587 22.8864 1.70667 22.8772C2.07558 22.8052 2.28173 22.539 2.51966 22.2657C2.42591 21.9519 2.28928 21.6685 2.14452 21.376C2.11911 21.3242 2.09369 21.2724 2.06751 21.219C2.01328 21.1085 1.95896 20.9981 1.90455 20.8877C1.76346 20.6015 1.62309 20.3149 1.4826 20.0283C1.45519 19.9725 1.42778 19.9167 1.39954 19.8591C1.15033 19.3511 0.904385 18.8417 0.662741 18.33C0.568895 18.1317 0.471561 17.9355 0.372061 17.74C0.334532 17.6648 0.334532 17.6648 0.296244 17.5881C0.25 17.4956 0.202902 17.4036 0.154681 17.3121C-0.00309594 16.993 -0.0485132 16.7024 0.000128129 16.3477C0.12075 16.1065 0.219289 15.9772 0.468878 15.8789C0.61051 15.8649 0.61051 15.8649 0.769801 15.8656C0.860763 15.8657 0.860763 15.8657 0.953564 15.8657C1.01689 15.8663 1.08021 15.8669 1.14545 15.8675C1.20396 15.8676 1.26247 15.8677 1.32275 15.8679C1.54106 15.8685 1.75936 15.8701 1.97767 15.8716C2.4659 15.874 2.95413 15.8765 3.45716 15.8789C3.45716 14.8155 3.45716 13.752 3.45716 12.6563C3.28314 12.5983 3.28314 12.5983 3.1056 12.5391C2.97503 12.452 2.85422 12.3655 2.73206 12.2681C2.69878 12.2419 2.6655 12.2157 2.63121 12.1887C1.66717 11.4186 0.903904 10.2729 0.761847 9.02348C0.650006 7.49915 0.932186 6.16905 1.93372 4.98051C3.62948 3.04751 6.4935 2.72514 8.60196 4.17576ZM20.215 6.50395C20.215 6.94868 20.215 7.3934 20.215 7.8516C21.6072 7.8516 22.9993 7.8516 24.4337 7.8516C24.2984 7.40688 24.163 6.96215 24.0236 6.50395C22.7667 6.50395 21.5099 6.50395 20.215 6.50395ZM10.6642 7.8516C10.6449 8.19965 10.6255 8.5477 10.6056 8.90629C10.4754 9.62848 10.4754 9.62848 10.3378 9.92482C10.1764 10.3434 10.2263 10.8344 10.2241 11.2773C10.2232 11.4028 10.2212 11.5283 10.2192 11.6538C10.2188 11.7281 10.2184 11.8025 10.218 11.8791C10.1942 12.0807 10.1621 12.1631 10.0197 12.3047C9.8197 12.3559 9.61855 12.3418 9.43738 12.2425C9.34515 12.0743 9.33436 11.9078 9.31653 11.7188C9.28813 11.7401 9.25974 11.7614 9.23047 11.7833C9.14759 11.8455 9.06465 11.9076 8.98168 11.9696C8.89632 12.0339 8.81129 12.0985 8.72671 12.1637C8.48321 12.3505 8.2388 12.5101 7.96888 12.6563C7.96888 12.7723 7.96888 12.8883 7.96888 13.0079C11.0626 13.0079 14.1564 13.0079 17.3439 13.0079C17.3439 11.3063 17.3439 9.60473 17.3439 7.8516C15.1396 7.8516 12.9353 7.8516 10.6642 7.8516ZM20.215 8.7891C20.215 9.15649 20.215 9.52387 20.215 9.90239C21.8199 9.90239 23.4247 9.90239 25.0783 9.90239C24.9622 9.535 24.8462 9.16762 24.7267 8.7891C23.2378 8.7891 21.749 8.7891 20.215 8.7891ZM4.39466 13.0664C4.39453 13.169 4.39453 13.169 4.39441 13.2736C4.39343 13.9176 4.39092 14.5616 4.38692 15.2057C4.38491 15.5368 4.38344 15.8679 4.3832 16.199C4.38295 16.5185 4.38129 16.838 4.37864 17.1575C4.37788 17.2794 4.37763 17.4013 4.37789 17.5233C4.37818 17.694 4.37665 17.8647 4.3747 18.0354C4.37521 18.0858 4.37571 18.1363 4.37624 18.1883C4.37138 18.4416 4.36115 18.5428 4.19815 18.7471C4.09087 18.8302 3.98024 18.9091 3.86732 18.9844C4.21603 19.3044 4.57196 19.6114 4.93986 19.9091C5.17425 20.102 5.40019 20.304 5.62513 20.5079C5.86173 20.428 6.00855 20.3238 6.18909 20.1526C6.45079 19.91 6.72115 19.6827 6.99842 19.4582C7.18826 19.3037 7.37375 19.1447 7.55872 18.9844C7.50071 18.9457 7.44271 18.9071 7.38294 18.8672C7.22931 18.7482 7.10912 18.6547 7.0627 18.4597C7.05154 18.3175 7.04991 18.178 7.05133 18.0354C7.05072 17.9816 7.05011 17.9279 7.04947 17.8725C7.04779 17.6952 7.04816 17.5181 7.04854 17.3408C7.04778 17.2177 7.04688 17.0947 7.04586 16.9716C7.04352 16.648 7.04293 16.3245 7.04269 16.0009C7.04215 15.6706 7.03996 15.3403 7.0379 15.01C7.03412 14.3621 7.03217 13.7143 7.03138 13.0664C6.96359 13.0747 6.89581 13.083 6.82597 13.0916C6.73583 13.1024 6.64568 13.1133 6.55553 13.1241C6.511 13.1296 6.46647 13.1351 6.42059 13.1407C5.88347 13.205 5.37707 13.1941 4.84167 13.1241C4.79852 13.1186 4.75538 13.1131 4.71092 13.1074C4.60549 13.0939 4.50007 13.0802 4.39466 13.0664ZM7.96888 13.9454C7.96888 14.5834 7.96888 15.2215 7.96888 15.8789C8.18157 15.8789 8.39427 15.8789 8.61341 15.8789C8.61492 15.8098 8.61643 15.7406 8.61799 15.6693C8.62129 15.578 8.62465 15.4868 8.62806 15.3955C8.6293 15.3272 8.6293 15.3272 8.63058 15.2575C8.63997 15.0377 8.64725 14.917 8.77889 14.7352C8.96459 14.6089 9.09749 14.6206 9.31653 14.6485C9.41669 14.7168 9.41669 14.7168 9.49232 14.8243C9.50649 14.9781 9.50649 14.9781 9.49758 15.1632C9.4761 16.0938 9.55044 16.6864 10.1603 17.4036C10.2995 17.5759 10.4169 17.7611 10.536 17.9477C10.5589 17.9804 10.5819 18.0132 10.6056 18.0469C10.6249 18.0469 10.6443 18.0469 10.6642 18.0469C10.6645 18.0078 10.6649 17.9687 10.6652 17.9284C10.669 17.5216 10.6739 17.1148 10.6796 16.708C10.6815 16.5561 10.6832 16.4042 10.6845 16.2524C10.6865 16.0342 10.6895 15.816 10.6928 15.5979C10.6932 15.5299 10.6936 15.4619 10.6939 15.3918C10.6951 15.3285 10.6963 15.2652 10.6975 15.1999C10.6981 15.1442 10.6988 15.0885 10.6994 15.0312C10.7271 14.8554 10.7734 14.774 10.8986 14.6485C11.1 14.6192 11.1 14.6192 11.3087 14.6485C11.4659 14.7692 11.5344 14.8393 11.5735 15.0356C11.574 15.0934 11.5745 15.1511 11.5751 15.2107C11.5762 15.2763 11.5774 15.342 11.5786 15.4097C11.5787 15.4802 11.5787 15.5508 11.5788 15.6235C11.5798 15.696 11.5807 15.7685 11.5817 15.8432C11.5841 16.0355 11.5855 16.2277 11.5864 16.42C11.5875 16.6164 11.59 16.8128 11.5923 17.0092C11.5966 17.3941 11.5995 17.7791 11.6017 18.1641C11.9691 18.1641 12.3365 18.1641 12.715 18.1641C12.7158 18.0638 12.7167 17.9636 12.7176 17.8603C12.7206 17.5291 12.7244 17.198 12.7288 16.8668C12.7314 16.666 12.7337 16.4653 12.7353 16.2645C12.7371 16.0336 12.7403 15.8028 12.7436 15.572C12.744 15.4999 12.7443 15.4277 12.7447 15.3534C12.7459 15.2865 12.747 15.2197 12.7482 15.1508C12.7489 15.0919 12.7495 15.0329 12.7502 14.9722C12.7736 14.8243 12.7736 14.8243 12.8502 14.7171C13.0148 14.6032 13.1663 14.6312 13.3595 14.6485C13.5353 14.7657 13.5353 14.7657 13.5939 14.9414C13.6007 15.0466 13.6042 15.1519 13.6059 15.2572C13.6077 15.354 13.6077 15.354 13.6095 15.4527C13.6104 15.5223 13.6114 15.5919 13.6124 15.6636C13.6136 15.7349 13.6149 15.8061 13.6161 15.8796C13.6199 16.1076 13.6234 16.3357 13.6268 16.5638C13.6294 16.7182 13.6319 16.8727 13.6345 17.0271C13.6408 17.4061 13.6467 17.7851 13.6525 18.1641C13.9618 18.1641 14.2712 18.1641 14.59 18.1641C14.59 16.7719 14.59 15.3797 14.59 13.9454C12.405 13.9454 10.22 13.9454 7.96888 13.9454ZM15.5275 13.9454C15.5275 15.3375 15.5275 16.7297 15.5275 18.1641C15.8596 18.1663 16.1917 18.1685 16.5339 18.1707C16.744 18.1725 16.9542 18.1743 17.1643 18.1763C17.498 18.1795 17.8317 18.1825 18.1654 18.1844C18.4344 18.1859 18.7034 18.1883 18.9724 18.1912C19.0751 18.1922 19.1778 18.1929 19.2805 18.1933C19.4242 18.1938 19.5678 18.1955 19.7115 18.1974C19.7755 18.1972 19.7755 18.1972 19.8407 18.1971C20.1284 18.2025 20.1284 18.2025 20.2705 18.3051C20.3471 18.4211 20.3575 18.4943 20.3578 18.6329C20.3595 18.6927 20.3595 18.6927 20.3612 18.7537C20.3322 18.8672 20.3322 18.8672 20.2374 18.9608C20.0527 19.0695 19.9237 19.0651 19.7098 19.0653C19.6514 19.0657 19.6514 19.0657 19.5919 19.0662C19.4615 19.0669 19.3313 19.0663 19.201 19.0658C19.1075 19.066 19.014 19.0663 18.9206 19.0667C18.6667 19.0675 18.4128 19.0672 18.1589 19.0666C17.8932 19.0662 17.6274 19.0666 17.3616 19.0669C16.9151 19.0672 16.4686 19.0668 16.0221 19.0659C15.5063 19.065 14.9905 19.0653 14.4746 19.0662C14.0316 19.067 13.5886 19.0672 13.1455 19.0667C12.881 19.0664 12.6165 19.0664 12.352 19.067C12.1031 19.0675 11.8542 19.0671 11.6053 19.0661C11.5141 19.0659 11.4229 19.0659 11.3317 19.0663C11.2069 19.0668 11.0821 19.0662 10.9573 19.0653C10.8876 19.0653 10.8178 19.0652 10.746 19.0651C10.3508 19.0212 10.0907 18.8603 9.8409 18.5566C9.63981 18.2782 9.46282 17.9849 9.2838 17.6919C9.0105 17.2295 9.0105 17.2295 8.672 16.8164C8.55367 16.8122 8.43519 16.8115 8.31678 16.8128C8.14457 16.8146 8.14457 16.8146 7.96888 16.8164C7.96888 17.2032 7.96888 17.5899 7.96888 17.9883C8.08973 18.0028 8.21058 18.0173 8.33509 18.0323C8.62848 18.0675 8.77749 18.106 8.96497 18.3399C9.04894 18.5078 9.04152 18.6219 9.02357 18.8086C8.87249 19.1324 8.61186 19.3154 8.33578 19.534C8.11979 19.7055 7.91275 19.8868 7.70521 20.0684C7.34956 20.3784 6.98884 20.6808 6.62122 20.9766C6.56654 21.0209 6.51185 21.0653 6.45551 21.111C5.91876 21.5442 5.91876 21.5442 5.58919 21.5383C5.30655 21.4689 5.10725 21.2508 4.89654 21.0593C4.76645 20.942 4.63314 20.8286 4.49987 20.7148C4.39427 20.6247 4.28907 20.5341 4.18386 20.4435C4.01339 20.2974 3.8404 20.1548 3.6659 20.0135C3.61537 19.9719 3.56484 19.9302 3.51278 19.8874C3.41834 19.8102 3.32365 19.7333 3.22773 19.658C3.10536 19.5617 2.98461 19.4636 2.8639 19.3653C2.82497 19.3354 2.78603 19.3055 2.74592 19.2748C2.53674 19.1014 2.43802 18.9821 2.40247 18.7077C2.39217 18.5332 2.40426 18.4524 2.46839 18.285C2.73047 17.9967 3.09014 18.0177 3.45716 17.9883C3.45716 17.6016 3.45716 17.2149 3.45716 16.8164C2.66439 16.8164 1.87161 16.8164 1.05482 16.8164C1.14654 17.0916 1.24915 17.3412 1.37662 17.5995C1.39667 17.6405 1.41671 17.6816 1.43736 17.7239C1.48027 17.8117 1.52328 17.8995 1.56638 17.9873C1.65708 18.172 1.74731 18.3569 1.83756 18.5418C1.88306 18.635 1.92858 18.7282 1.97412 18.8214C2.16736 19.2167 2.35875 19.613 2.54896 20.0098C2.59061 20.0967 2.59061 20.0967 2.6331 20.1853C2.88995 20.7217 3.14472 21.2591 3.39857 21.7969C3.45589 21.7942 3.51322 21.7915 3.57229 21.7887C4.32796 21.7679 4.72611 21.9241 5.27357 22.4414C5.35867 22.5175 5.44411 22.5932 5.52991 22.6685C5.58679 22.719 5.58679 22.719 5.64481 22.7706C5.82434 22.9198 5.97472 22.9309 6.20695 22.9255C6.5426 22.8831 6.74312 22.6126 6.96546 22.3829C7.36368 21.975 7.74974 21.7901 8.3241 21.7749C8.8632 21.7705 9.27611 21.9547 9.6681 22.3243C9.71402 22.3823 9.75994 22.4403 9.80726 22.5C10.0337 22.7588 10.2324 22.8934 10.5836 22.9358C10.9153 22.8928 11.0988 22.7217 11.3197 22.4817C11.7419 22.0482 12.1714 21.7903 12.7809 21.7786C13.4297 21.7779 13.7792 22.0075 14.2384 22.4414C14.3235 22.5175 14.409 22.5932 14.4948 22.6685C14.5327 22.7022 14.5706 22.7359 14.6097 22.7706C14.7892 22.9198 14.9396 22.9309 15.1718 22.9255C15.5074 22.8831 15.708 22.6126 15.9303 22.3829C16.3285 21.975 16.7146 21.7901 17.2889 21.7749C17.828 21.7705 18.241 21.9547 18.6329 22.3243C18.6789 22.3823 18.7248 22.4403 18.7721 22.5C18.9964 22.7564 19.1948 22.89 19.5411 22.9395C19.914 22.8862 20.1194 22.7312 20.3505 22.4488C20.6086 22.1356 20.9439 21.925 21.3283 21.7969C21.9817 21.7491 22.4635 21.789 22.9725 22.2254C23.0498 22.297 23.1267 22.3691 23.2033 22.4414C23.2884 22.5175 23.3738 22.5932 23.4596 22.6685C23.4975 22.7022 23.5354 22.7359 23.5745 22.7706C23.754 22.9198 23.9044 22.9309 24.1366 22.9255C24.4723 22.8831 24.6728 22.6126 24.8951 22.3829C25.2172 22.053 25.5601 21.808 26.037 21.7891C26.1134 21.7893 26.1898 21.7894 26.2684 21.7896C26.3443 21.7894 26.4203 21.7893 26.4985 21.7891C26.6956 21.7961 26.8768 21.8211 27.0704 21.8555C27.5285 21.0068 27.9828 20.1563 28.4254 19.2994C28.4436 19.2641 28.4618 19.2289 28.4806 19.1926C28.5665 19.0263 28.6519 18.8598 28.7358 18.6925C28.8283 18.5157 28.8283 18.5157 28.9184 18.3759C29.247 17.8415 29.1212 17.5426 29.1212 16.8164C27.5357 16.8164 25.9501 16.8164 24.3165 16.8164C24.0845 17.3772 23.8525 17.9379 23.6134 18.5157C23.228 18.9781 23.228 18.9781 22.8517 19.043C22.6807 19.0573 22.5105 19.0627 22.339 19.065C22.2953 19.0658 22.2516 19.0666 22.2066 19.0675C22.0193 19.0658 21.8778 19.0544 21.7098 18.9684C21.6036 18.8471 21.5911 18.7923 21.5956 18.6329C21.5957 18.573 21.5957 18.573 21.5958 18.512C21.6307 18.3563 21.6612 18.3094 21.797 18.2227C21.9948 18.2139 22.1868 18.214 22.3841 18.2278C22.5201 18.228 22.61 18.2199 22.7345 18.1641C22.8717 17.9852 22.9467 17.7874 23.0275 17.5782C23.072 17.4728 23.1165 17.3674 23.1611 17.2621C23.2268 17.1024 23.292 16.9426 23.3559 16.7822C23.4793 16.4846 23.588 16.2588 23.8478 16.0547C23.9445 16.0161 24.0411 15.9774 24.1408 15.9375C24.1408 15.2801 24.1408 14.6227 24.1408 13.9454C21.2984 13.9454 18.456 13.9454 15.5275 13.9454Z" fill="white"/>
<path d="M4.77862 24.7907C5.03166 24.9876 5.25043 25.2165 5.46893 25.4504C5.66822 25.6482 5.77711 25.7132 6.05349 25.7445C6.47391 25.7017 6.68078 25.4933 6.9617 25.1988C7.37648 24.7778 7.72062 24.5838 8.32034 24.5726C8.97891 24.5841 9.36021 24.8585 9.82478 25.3016C10.1475 25.614 10.1475 25.614 10.5616 25.7408C10.9493 25.7085 11.1275 25.4964 11.3855 25.2281C11.7959 24.8067 12.2171 24.5957 12.8064 24.5872C13.398 24.5875 13.7458 24.7535 14.1659 25.1685C14.2568 25.2611 14.3452 25.3556 14.4338 25.4504C14.6434 25.6584 14.7532 25.713 15.044 25.7518C15.4585 25.7395 15.7211 25.4161 15.9888 25.1329C16.3726 24.7469 16.7366 24.5817 17.2852 24.5726C17.9438 24.5843 18.325 24.8584 18.7896 25.3016C19.1124 25.614 19.1124 25.614 19.5264 25.7408C19.9142 25.7085 20.0923 25.4964 20.3504 25.2281C20.7607 24.8067 21.1819 24.5957 21.7713 24.5872C22.3628 24.5875 22.7107 24.7535 23.1308 25.1685C23.2216 25.2611 23.3101 25.3556 23.3986 25.4504C23.6128 25.663 23.717 25.7155 24.0161 25.7445C24.4232 25.7295 24.6212 25.4774 24.8877 25.1988C25.305 24.7796 25.6497 24.5838 26.25 24.5726C26.9086 24.5841 27.2899 24.8585 27.7545 25.3016C28.0594 25.5947 28.0594 25.5947 28.451 25.7225C28.6208 25.7559 28.7123 25.7819 28.8611 25.8763C28.9836 26.0787 28.9986 26.2541 28.9453 26.4842C28.785 26.6846 28.687 26.7145 28.4326 26.7442C27.9247 26.7155 27.4811 26.5086 27.1399 26.1329C27.1049 26.0917 27.0698 26.0505 27.0337 26.0081C26.7979 25.7323 26.6303 25.5991 26.261 25.5687C25.8964 25.5805 25.7306 25.7627 25.4883 26.0155C25.0464 26.4493 24.6581 26.7219 24.0235 26.7479C23.3029 26.7175 22.8755 26.3499 22.3927 25.8445C22.2042 25.6586 22.0687 25.5797 21.8006 25.5614C21.3497 25.5914 21.0985 25.8892 20.8008 26.1986C20.4538 26.5559 20.063 26.723 19.5667 26.7369C19.0609 26.7308 18.621 26.5732 18.2511 26.2253C18.1664 26.1351 18.0878 26.0423 18.0103 25.9459C17.8357 25.7392 17.7155 25.631 17.4459 25.5806C17.2258 25.5631 17.0602 25.5637 16.8686 25.6808C16.7471 25.7873 16.6352 25.8989 16.5235 26.0155C16.0816 26.4493 15.6932 26.7219 15.0586 26.7479C14.3851 26.7195 14.0058 26.4121 13.5352 25.9569C13.2478 25.7045 13.0701 25.5761 12.6817 25.5817C12.3212 25.6413 12.0782 25.9465 11.836 26.1986C11.4889 26.5559 11.0981 26.723 10.6018 26.7369C10.0571 26.7296 9.63038 26.5495 9.23678 26.1759C9.14065 26.0741 9.14065 26.0741 9.01248 25.9129C8.85646 25.7192 8.72813 25.6269 8.48079 25.5804C8.26084 25.5632 8.09529 25.5638 7.90378 25.6808C7.7823 25.7873 7.67037 25.8989 7.55862 26.0155C7.11673 26.4493 6.7284 26.7219 6.09378 26.7479C5.42026 26.7195 5.04099 26.4121 4.57034 25.9569C4.28292 25.7045 4.10527 25.5761 3.71684 25.5817C3.35639 25.6413 3.11331 25.9465 2.87112 26.1986C2.58009 26.4982 2.23815 26.693 1.81643 26.7284C1.37892 26.7327 1.37892 26.7327 1.2305 26.6014C1.14194 26.388 1.09819 26.2531 1.15359 26.0264C1.2305 25.8983 1.2305 25.8983 1.40628 25.7811C1.48762 25.7652 1.56952 25.752 1.65164 25.7408C1.98427 25.6719 2.16631 25.487 2.40237 25.2537C3.04626 24.6381 3.93684 24.2985 4.77862 24.7907Z" fill="white"/>
<path d="M5.70568 5.07983C5.95729 5.08463 5.95729 5.08463 6.09752 5.18237C6.17975 5.40714 6.16611 5.62319 6.15245 5.85986C6.21771 5.85382 6.28297 5.84778 6.35021 5.84155C6.68 5.84389 6.9421 5.9608 7.20714 6.15283C7.4695 6.4507 7.59656 6.72449 7.63927 7.11597C7.6173 7.32471 7.6173 7.32471 7.49645 7.49683C7.28093 7.64815 7.17244 7.65994 6.91417 7.61768C6.75284 7.51739 6.69421 7.4364 6.64451 7.25328C6.62991 7.18248 6.62991 7.18248 6.61502 7.11024C6.60504 7.06266 6.59506 7.01507 6.58477 6.96604C6.57746 6.92971 6.57014 6.89338 6.56261 6.85596C6.30261 6.85087 6.04262 6.84773 5.78258 6.84497C5.7086 6.8435 5.63462 6.84203 5.55839 6.84051C5.48758 6.83994 5.41677 6.83937 5.34382 6.83879C5.27846 6.83787 5.2131 6.83695 5.14576 6.836C4.98035 6.84212 4.98035 6.84212 4.87157 6.93702C4.7839 7.06138 4.77942 7.14413 4.77916 7.29541C4.77803 7.34073 4.7769 7.38605 4.77573 7.43274C4.79438 7.56599 4.79438 7.56599 4.90177 7.65351C5.07565 7.75646 5.19029 7.75647 5.39165 7.75661C5.46016 7.75763 5.52866 7.75865 5.59925 7.7597C5.74253 7.76023 5.88581 7.76054 6.02909 7.76061C6.51609 7.76836 6.84832 7.81987 7.22133 8.1409C7.60038 8.59249 7.66404 8.96622 7.6173 9.55127C7.54772 9.96113 7.36625 10.2421 7.03136 10.4888C6.74062 10.6493 6.48051 10.6851 6.15245 10.6646C6.15517 10.6999 6.15789 10.7352 6.16069 10.7717C6.1778 11.1503 6.1778 11.1503 6.0609 11.342C5.86366 11.4584 5.73326 11.4544 5.50792 11.4263C5.38067 11.3558 5.38067 11.3558 5.27355 11.2505C5.23784 11.1051 5.23784 11.1051 5.2296 10.9465C5.22628 10.8937 5.22296 10.8409 5.21953 10.7865C5.21802 10.7463 5.21651 10.706 5.21495 10.6646C5.15695 10.6694 5.09894 10.6742 5.03917 10.6792C4.69006 10.6785 4.42868 10.5105 4.17125 10.2874C3.9266 10.0008 3.82411 9.77927 3.79039 9.40845C3.8087 9.19971 3.8087 9.19971 3.8966 9.02759C4.075 8.8804 4.17464 8.86652 4.40059 8.88248C4.57979 8.92156 4.6454 8.98991 4.7462 9.14111C4.78835 9.27691 4.82771 9.41363 4.86339 9.55127C5.07704 9.76492 5.42061 9.69011 5.70934 9.69043C5.81114 9.69258 5.81114 9.69258 5.91499 9.69478C5.97998 9.69501 6.04498 9.69523 6.11194 9.69547C6.17165 9.69595 6.23135 9.69643 6.29286 9.69692C6.45175 9.68202 6.45175 9.68202 6.55278 9.5624C6.65292 9.3746 6.64363 9.23323 6.6212 9.02393C6.55895 8.89026 6.55895 8.89026 6.44542 8.78955C6.28435 8.75562 6.28435 8.75562 6.10073 8.76209C6.0323 8.76125 5.96387 8.76042 5.89336 8.75957C5.75008 8.76002 5.6068 8.76048 5.46352 8.76094C4.96869 8.75497 4.58819 8.70452 4.19895 8.38351C4.15261 8.32709 4.15261 8.32709 4.10534 8.26953C4.05741 8.21356 4.05741 8.21356 4.00852 8.15646C3.75359 7.75959 3.76108 7.31117 3.8087 6.85596C3.93395 6.42021 4.17868 6.14056 4.57042 5.91846C4.7316 5.86473 4.82586 5.85348 4.99157 5.8562C5.10214 5.85801 5.10214 5.85801 5.21495 5.85986C5.21133 5.79823 5.2077 5.7366 5.20397 5.6731C5.22204 5.30571 5.33874 5.09112 5.70568 5.07983Z" fill="white"/>
<path d="M18.594 14.8083C18.655 14.8078 18.716 14.8072 18.7789 14.8066C18.8768 14.8067 18.8768 14.8067 18.9768 14.8068C19.0783 14.8064 19.0783 14.8064 19.1819 14.8061C19.3249 14.8057 19.4678 14.8057 19.6108 14.8059C19.8293 14.8061 20.0477 14.8047 20.2662 14.8033C20.4052 14.8031 20.5443 14.8031 20.6833 14.8031C20.7811 14.8023 20.7811 14.8023 20.8809 14.8015C21.2955 14.804 21.5668 14.8338 21.8755 15.1334C21.9947 15.3295 22.0029 15.4526 22.0038 15.6811C22.0042 15.7923 22.0042 15.7923 22.0047 15.9058C22.0038 15.9828 22.0029 16.0598 22.0019 16.1391C22.0033 16.2543 22.0033 16.2543 22.0047 16.3718C22.0044 16.446 22.0041 16.5202 22.0038 16.5967C22.0035 16.6641 22.0032 16.7316 22.0029 16.8012C21.9658 17.0355 21.888 17.1614 21.7382 17.344C21.5501 17.465 21.3976 17.4765 21.1763 17.4782C21.0777 17.4793 21.0777 17.4793 20.9771 17.4804C20.9064 17.4806 20.8356 17.4807 20.7628 17.4808C20.6898 17.4812 20.6168 17.4816 20.5416 17.482C20.3873 17.4826 20.2329 17.4829 20.0786 17.4829C19.9206 17.4829 19.7626 17.4837 19.6046 17.4853C19.3766 17.4874 19.1487 17.488 18.9207 17.4882C18.815 17.4894 18.815 17.4894 18.7071 17.4907C18.0843 17.4873 18.0843 17.4873 17.8125 17.2268C17.6146 16.9571 17.6712 16.5877 17.6703 16.268C17.6696 16.1509 17.6667 16.0338 17.6638 15.9167C17.6603 15.2838 17.6603 15.2838 17.8251 15.0712C18.0735 14.8739 18.2787 14.8099 18.594 14.8083ZM18.6328 15.7619C18.6328 16.0133 18.6328 16.2647 18.6328 16.5237C19.4256 16.5237 20.2183 16.5237 21.0351 16.5237C21.0351 16.2723 21.0351 16.0209 21.0351 15.7619C20.2423 15.7619 19.4496 15.7619 18.6328 15.7619Z" fill="white"/>
<path d="M16.1718 8.49556C16.3505 8.67756 16.37 8.81453 16.3713 9.06479C16.372 9.13206 16.3728 9.19932 16.3736 9.26863C16.3734 9.34102 16.3732 9.41341 16.373 9.488C16.3733 9.56254 16.3736 9.63709 16.374 9.71389C16.3743 9.87152 16.3743 10.0291 16.3738 10.1867C16.3731 10.3885 16.3743 10.5902 16.376 10.792C16.3773 10.9848 16.3769 11.1775 16.3767 11.3703C16.3777 11.4789 16.3777 11.4789 16.3787 11.5897C16.3779 11.6906 16.3779 11.6906 16.377 11.7935C16.377 11.8527 16.377 11.9118 16.377 11.9728C16.3398 12.1697 16.2676 12.239 16.1133 12.3628C15.9961 12.3959 15.9961 12.3959 15.8789 12.3957C15.8209 12.3976 15.8209 12.3976 15.7617 12.3996C15.5637 12.3373 15.5158 12.2495 15.4101 12.0698C15.3743 11.8246 15.3773 11.5811 15.379 11.3337C15.3788 11.262 15.3786 11.1903 15.3783 11.1164C15.3782 10.9649 15.3786 10.8134 15.3796 10.6619C15.3808 10.43 15.3796 10.1982 15.3781 9.96636C15.3782 9.81911 15.3785 9.67186 15.379 9.52462C15.3785 9.45528 15.3781 9.38593 15.3776 9.31449C15.383 8.83586 15.383 8.83586 15.5183 8.59971C15.7407 8.41617 15.9017 8.42239 16.1718 8.49556Z" fill="white"/>
<path d="M14.1211 8.49612C14.2994 8.67858 14.3193 8.81485 14.3206 9.06535C14.3213 9.13261 14.3221 9.19988 14.3229 9.26918C14.3227 9.34157 14.3225 9.41396 14.3223 9.48855C14.3226 9.56309 14.3229 9.63764 14.3233 9.71444C14.3236 9.87207 14.3236 10.0296 14.3231 10.1873C14.3224 10.389 14.3236 10.5908 14.3253 10.7925C14.3266 10.9853 14.3262 11.1781 14.326 11.3709C14.327 11.4795 14.327 11.4795 14.328 11.5902C14.3272 11.6911 14.3272 11.6911 14.3263 11.7941C14.3263 11.8532 14.3263 11.9124 14.3263 11.9733C14.2891 12.1703 14.2172 12.2398 14.0625 12.3633C13.8922 12.4048 13.7729 12.3832 13.5938 12.3633C13.4371 12.2572 13.4204 12.1947 13.3594 12.0117C13.3534 11.91 13.3507 11.808 13.35 11.706C13.3494 11.6436 13.3489 11.5812 13.3483 11.5169C13.348 11.4495 13.3478 11.3822 13.3475 11.3127C13.3472 11.2435 13.3469 11.1742 13.3465 11.1028C13.346 10.9561 13.3456 10.8094 13.3453 10.6627C13.3448 10.4383 13.343 10.214 13.3411 9.98957C13.3407 9.84713 13.3404 9.70469 13.3402 9.56225C13.3395 9.4951 13.3388 9.42796 13.338 9.35878C13.3382 9.29602 13.3384 9.23326 13.3385 9.1686C13.3383 9.11357 13.3381 9.05854 13.3379 9.00185C13.3694 8.7762 13.4593 8.61226 13.6414 8.47415C13.8226 8.42237 13.9414 8.44258 14.1211 8.49612Z" fill="white"/>
<path d="M12.0702 8.49607C12.2326 8.61367 12.2669 8.71397 12.3046 8.90623C12.3102 9.00667 12.3127 9.10729 12.3131 9.20788C12.3135 9.26792 12.3139 9.32796 12.3143 9.38981C12.3143 9.45433 12.3144 9.51885 12.3145 9.58532C12.3147 9.65192 12.3149 9.71853 12.3151 9.78715C12.3154 9.92796 12.3155 10.0688 12.3155 10.2096C12.3156 10.425 12.3167 10.6403 12.3178 10.8557C12.318 10.9926 12.3181 11.1294 12.3181 11.2662C12.3185 11.3306 12.319 11.395 12.3194 11.4614C12.3192 11.5216 12.319 11.5818 12.3189 11.6439C12.3189 11.6966 12.319 11.7494 12.3191 11.8038C12.3027 11.9727 12.2646 12.095 12.1874 12.2461C11.9694 12.3914 11.8594 12.3904 11.6015 12.3633C11.4402 12.2411 11.375 12.1715 11.3378 11.9706C11.3377 11.9103 11.3377 11.8499 11.3377 11.7877C11.3372 11.7191 11.3366 11.6505 11.3361 11.5798C11.3367 11.5059 11.3374 11.432 11.3381 11.356C11.338 11.28 11.3379 11.204 11.3378 11.1257C11.3377 10.9651 11.3384 10.8045 11.3398 10.6439C11.3415 10.438 11.3413 10.2322 11.3405 10.0264C11.34 9.82991 11.3409 9.63347 11.3417 9.43701C11.3415 9.36303 11.3414 9.28906 11.3412 9.21284C11.3419 9.1444 11.3427 9.07595 11.3434 9.00544C11.3438 8.94512 11.3441 8.8848 11.3444 8.82266C11.3671 8.67186 11.3671 8.67186 11.4455 8.56678C11.6599 8.41111 11.824 8.43451 12.0702 8.49607Z" fill="white"/>
</g>
<defs>
<clipPath id="clip0_2431_45443">
<rect width="30" height="30" fill="white"/>
</clipPath>
</defs>
</svg>
