<svg width="18" height="18" viewBox="0 0 18 18" fill="none" xmlns="http://www.w3.org/2000/svg">
<g clip-path="url(#clip0_6631_45381)">
<path d="M8.9997 7.10889H6.28552M8.9997 9.82306H6.28552" stroke="white" stroke-width="0.977143" stroke-linecap="round" stroke-linejoin="round"/>
<path d="M10.357 1.68066H4.24983C4.16071 1.68062 4.07245 1.69814 3.9901 1.73222C3.90774 1.76629 3.83291 1.81626 3.76988 1.87927C3.70684 1.94227 3.65684 2.01708 3.62272 2.09942C3.5886 2.18175 3.57104 2.27 3.57104 2.35913V13.8949L5.1589 13.2165L6.74024 13.8949L8.32126 13.2165L9.90228 13.8949L11.4833 13.2165L13.0712 13.8949V11.8592" stroke="white" stroke-width="0.977143" stroke-linecap="round" stroke-linejoin="round"/>
<circle cx="13.2343" cy="4.85626" r="3.25714" fill="white"/>
<path d="M13.0667 5.86145V2.90201H13.4018V5.86145L14.3003 4.98788L14.5371 5.21816L13.2343 6.48486L11.9314 5.21816L12.1682 4.98788L13.0667 5.86145Z" fill="#61748F"/>
</g>
<defs>
<clipPath id="clip0_6631_45381">
<rect width="18" height="18" fill="white"/>
</clipPath>
</defs>
</svg>
